999
"DXF R12 Output" (www.mydxf.blogspot.com)
 0 
SECTION
 2 
HEADER
 9 
$ACADVER
 1 
AC1009
 9 
$EXTMIN
 10 
 0 
 20 
 0 
 9 
$EXTMAX
 10 
 8.5 
 20 
 11 
 0 
ENDSEC
 0 
SECTION
 2 
ENTITIES
0
LINE
8
Layer 1
10
0.000000
20
300.000000
11
-0.661460
21
299.339000
0
LINE
8
Layer 1
10
-0.661460
20
299.339000
11
1.653650
21
300.000000
0
LINE
8
Layer 1
10
1.653650
20
300.000000
11
-0.661460
21
300.661000
0
LINE
8
Layer 1
10
-0.661460
20
300.661000
11
0.000000
21
300.000000
0
LINE
8
Layer 1
10
0.793749
20
300.794000
11
-0.793749
21
299.206000
0
LINE
8
Layer 1
10
0.000000
20
301.323000
11
0.000000
21
298.677000
0
LINE
8
Layer 1
10
2.116660
20
298.942000
11
1.058330
21
297.883670
0
LINE
8
Layer 1
10
1.587500
20
299.471000
11
0.529170
21
298.412670
0
LINE
8
Layer 1
10
1.058330
20
300.000000
11
0.000000
21
298.941670
0
LINE
8
Layer 1
10
0.000000
20
300.000000
11
-0.661460
21
299.339000
0
LINE
8
Layer 1
10
-0.661460
20
299.339000
11
1.653650
21
300.000000
0
LINE
8
Layer 1
10
1.653650
20
300.000000
11
-0.661460
21
300.661000
0
LINE
8
Layer 1
10
-0.661460
20
300.661000
11
0.000000
21
300.000000
0
LINE
8
Shape2DView
10
4.299990
20
58.500400
11
4.058836
21
59.400400
0
LINE
8
Shape2DView
10
4.058836
20
59.400400
11
3.399990
21
60.059246
0
LINE
8
Shape2DView
10
3.399990
20
60.059246
11
2.499990
21
60.300400
0
LINE
8
Shape2DView
10
2.499990
20
60.300400
11
1.599990
21
60.059246
0
LINE
8
Shape2DView
10
1.599990
20
60.059246
11
0.941144
21
59.400400
0
LINE
8
Shape2DView
10
0.941144
20
59.400400
11
0.699990
21
58.500400
0
LINE
8
Shape2DView
10
0.699990
20
58.500400
11
0.941144
21
57.600400
0
LINE
8
Shape2DView
10
0.941144
20
57.600400
11
1.599990
21
56.941554
0
LINE
8
Shape2DView
10
1.599990
20
56.941554
11
2.499990
21
56.700400
0
LINE
8
Shape2DView
10
2.499990
20
56.700400
11
3.399990
21
56.941554
0
LINE
8
Shape2DView
10
3.399990
20
56.941554
11
4.058836
21
57.600400
0
LINE
8
Shape2DView
10
4.058836
20
57.600400
11
4.299990
21
58.500400
0
LINE
8
Shape2DView
10
4.299990
20
58.500400
11
4.299990
21
58.500400
0
LINE
8
Shape2DView
10
243.300000
20
58.500400
11
243.157328
21
59.199678
0
LINE
8
Shape2DView
10
243.157328
20
59.199678
11
242.771296
21
59.770449
0
LINE
8
Shape2DView
10
242.771296
20
59.770449
11
242.199618
21
60.155134
0
LINE
8
Shape2DView
10
242.199618
20
60.155134
11
241.500005
21
60.296157
0
LINE
8
Shape2DView
10
241.500005
20
60.296157
11
240.800392
21
60.155134
0
LINE
8
Shape2DView
10
240.800392
20
60.155134
11
240.228714
21
59.770449
0
LINE
8
Shape2DView
10
240.228714
20
59.770449
11
239.842682
21
59.199678
0
LINE
8
Shape2DView
10
239.842682
20
59.199678
11
239.700010
21
58.500400
0
LINE
8
Shape2DView
10
239.700010
20
58.500400
11
239.842682
21
57.801122
0
LINE
8
Shape2DView
10
239.842682
20
57.801122
11
240.228714
21
57.230351
0
LINE
8
Shape2DView
10
240.228714
20
57.230351
11
240.800392
21
56.845666
0
LINE
8
Shape2DView
10
240.800392
20
56.845666
11
241.500005
21
56.704643
0
LINE
8
Shape2DView
10
241.500005
20
56.704643
11
242.199618
21
56.845666
0
LINE
8
Shape2DView
10
242.199618
20
56.845666
11
242.771296
21
57.230351
0
LINE
8
Shape2DView
10
242.771296
20
57.230351
11
243.157328
21
57.801122
0
LINE
8
Shape2DView
10
243.157328
20
57.801122
11
243.300000
21
58.500400
0
LINE
8
Shape2DView
10
243.300000
20
58.500400
11
243.300000
21
58.500400
0
LINE
8
Shape2DView
10
0.000000
20
56.000300
11
244.000000
21
56.000300
0
LINE
8
Shape2DView
10
244.000000
20
56.000300
11
244.000000
21
300.000000
0
LINE
8
Shape2DView
10
4.299990
20
297.500000
11
4.058836
21
298.400000
0
LINE
8
Shape2DView
10
4.058836
20
298.400000
11
3.399990
21
299.058846
0
LINE
8
Shape2DView
10
3.399990
20
299.058846
11
2.499990
21
299.300000
0
LINE
8
Shape2DView
10
2.499990
20
299.300000
11
1.599990
21
299.058846
0
LINE
8
Shape2DView
10
1.599990
20
299.058846
11
0.941144
21
298.400000
0
LINE
8
Shape2DView
10
0.941144
20
298.400000
11
0.699990
21
297.500000
0
LINE
8
Shape2DView
10
0.699990
20
297.500000
11
0.941144
21
296.600000
0
LINE
8
Shape2DView
10
0.941144
20
296.600000
11
1.599990
21
295.941154
0
LINE
8
Shape2DView
10
1.599990
20
295.941154
11
2.499990
21
295.700000
0
LINE
8
Shape2DView
10
2.499990
20
295.700000
11
3.399990
21
295.941154
0
LINE
8
Shape2DView
10
3.399990
20
295.941154
11
4.058836
21
296.600000
0
LINE
8
Shape2DView
10
4.058836
20
296.600000
11
4.299990
21
297.500000
0
LINE
8
Shape2DView
10
4.299990
20
297.500000
11
4.299990
21
297.500000
0
LINE
8
Shape2DView
10
243.300000
20
297.500000
11
243.157328
21
298.199278
0
LINE
8
Shape2DView
10
243.157328
20
298.199278
11
242.771296
21
298.770049
0
LINE
8
Shape2DView
10
242.771296
20
298.770049
11
242.199618
21
299.154734
0
LINE
8
Shape2DView
10
242.199618
20
299.154734
11
241.500005
21
299.295757
0
LINE
8
Shape2DView
10
241.500005
20
299.295757
11
240.800392
21
299.154734
0
LINE
8
Shape2DView
10
240.800392
20
299.154734
11
240.228714
21
298.770049
0
LINE
8
Shape2DView
10
240.228714
20
298.770049
11
239.842682
21
298.199278
0
LINE
8
Shape2DView
10
239.842682
20
298.199278
11
239.700010
21
297.500000
0
LINE
8
Shape2DView
10
239.700010
20
297.500000
11
239.842682
21
296.800722
0
LINE
8
Shape2DView
10
239.842682
20
296.800722
11
240.228714
21
296.229951
0
LINE
8
Shape2DView
10
240.228714
20
296.229951
11
240.800392
21
295.845266
0
LINE
8
Shape2DView
10
240.800392
20
295.845266
11
241.500005
21
295.704243
0
LINE
8
Shape2DView
10
241.500005
20
295.704243
11
242.199618
21
295.845266
0
LINE
8
Shape2DView
10
242.199618
20
295.845266
11
242.771296
21
296.229951
0
LINE
8
Shape2DView
10
242.771296
20
296.229951
11
243.157328
21
296.800722
0
LINE
8
Shape2DView
10
243.157328
20
296.800722
11
243.300000
21
297.500000
0
LINE
8
Shape2DView
10
243.300000
20
297.500000
11
243.300000
21
297.500000
0
LINE
8
Shape2DView
10
240.231000
20
59.769500
11
94.681100
21
205.319000
0
LINE
8
Shape2DView
10
244.000000
20
112.569000
11
122.965000
21
233.603000
0
LINE
8
Shape2DView
10
244.000000
20
169.137000
11
151.250000
21
261.887000
0
LINE
8
Shape2DView
10
244.000000
20
225.706000
11
179.534000
21
290.172000
0
LINE
8
Shape2DView
10
187.431000
20
56.000300
11
66.396900
21
177.035000
0
LINE
8
Shape2DView
10
130.863000
20
56.000300
11
38.112600
21
148.750000
0
LINE
8
Shape2DView
10
74.294300
20
56.000300
11
9.828400
21
120.466000
0
LINE
8
Shape2DView
10
17.725900
20
56.000300
11
8.406500
21
65.319700
0
LINE
8
Shape2DView
10
182.431000
20
56.000300
11
235.986000
21
109.555000
0
LINE
8
Shape2DView
10
210.716000
20
56.000300
11
235.985900
21
81.270300
0
LINE
8
Shape2DView
10
125.863000
20
56.000300
11
235.993000
21
166.130000
0
LINE
8
Shape2DView
10
69.294100
20
56.000300
11
235.986000
21
222.692000
0
LINE
8
Shape2DView
10
12.349700
20
55.646700
11
235.986000
21
279.260000
0
LINE
8
Shape2DView
10
0.000000
20
99.843100
11
193.821000
21
293.664000
0
LINE
8
Shape2DView
10
154.147000
20
56.000300
11
235.986000
21
137.839000
0
LINE
8
Shape2DView
10
97.578200
20
56.000300
11
235.986000
21
194.408000
0
LINE
8
Shape2DView
10
41.009600
20
56.000300
11
235.986000
21
250.976000
0
LINE
8
Shape2DView
10
0.000000
20
71.559100
11
221.843000
21
293.402000
0
LINE
8
Shape2DView
10
46.009900
20
56.000300
11
8.015560
21
93.994600
0
LINE
8
Shape2DView
10
244.000000
20
253.990000
11
206.005000
21
291.984000
0
LINE
8
Shape2DView
10
244.000000
20
197.422000
11
165.392000
21
276.030000
0
LINE
8
Shape2DView
10
244.000000
20
140.853000
11
137.108000
21
247.745000
0
LINE
8
Shape2DView
10
244.000000
20
84.284700
11
108.823000
21
219.461000
0
LINE
8
Shape2DView
10
215.715000
20
56.000300
11
80.538900
21
191.177000
0
LINE
8
Shape2DView
10
159.147000
20
56.000300
11
52.254900
21
162.893000
0
LINE
8
Shape2DView
10
102.579000
20
56.000300
11
23.970600
21
134.608000
 0 
ENDSEC
 0 
EOF