999
"DXF R12 Output" (www.mydxf.blogspot.com)
 0 
SECTION
 2 
HEADER
 9 
$ACADVER
 1 
AC1009
 9 
$EXTMIN
 10 
 0 
 20 
 0 
 9 
$EXTMAX
 10 
 8.5 
 20 
 11 
 0 
ENDSEC
 0 
SECTION
 2 
ENTITIES
0
LINE
8
Layer 1
10
0.793749
20
300.794000
11
-0.793749
21
299.206000
0
LINE
8
Layer 1
10
0.000000
20
301.323000
11
0.000000
21
298.677000
0
LINE
8
Layer 1
10
2.116660
20
298.942000
11
1.058330
21
297.883670
0
LINE
8
Layer 1
10
1.587500
20
299.471000
11
0.529170
21
298.412670
0
LINE
8
Layer 1
10
1.058330
20
300.000000
11
0.000000
21
298.941670
0
LINE
8
Shape2DView
10
4.299990
20
58.500400
11
4.058836
21
59.400400
0
LINE
8
Shape2DView
10
4.058836
20
59.400400
11
3.399990
21
60.059246
0
LINE
8
Shape2DView
10
3.399990
20
60.059246
11
2.499990
21
60.300400
0
LINE
8
Shape2DView
10
2.499990
20
60.300400
11
1.599990
21
60.059246
0
LINE
8
Shape2DView
10
1.599990
20
60.059246
11
0.941144
21
59.400400
0
LINE
8
Shape2DView
10
0.941144
20
59.400400
11
0.699990
21
58.500400
0
LINE
8
Shape2DView
10
0.699990
20
58.500400
11
0.941144
21
57.600400
0
LINE
8
Shape2DView
10
0.941144
20
57.600400
11
1.599990
21
56.941554
0
LINE
8
Shape2DView
10
1.599990
20
56.941554
11
2.499990
21
56.700400
0
LINE
8
Shape2DView
10
2.499990
20
56.700400
11
3.399990
21
56.941554
0
LINE
8
Shape2DView
10
3.399990
20
56.941554
11
4.058836
21
57.600400
0
LINE
8
Shape2DView
10
4.058836
20
57.600400
11
4.299990
21
58.500400
0
LINE
8
Shape2DView
10
4.299990
20
58.500400
11
4.299990
21
58.500400
0
LINE
8
Shape2DView
10
243.300000
20
58.500400
11
243.157328
21
59.199678
0
LINE
8
Shape2DView
10
243.157328
20
59.199678
11
242.771296
21
59.770449
0
LINE
8
Shape2DView
10
242.771296
20
59.770449
11
242.199618
21
60.155134
0
LINE
8
Shape2DView
10
242.199618
20
60.155134
11
241.500005
21
60.296157
0
LINE
8
Shape2DView
10
241.500005
20
60.296157
11
240.800392
21
60.155134
0
LINE
8
Shape2DView
10
240.800392
20
60.155134
11
240.228714
21
59.770449
0
LINE
8
Shape2DView
10
240.228714
20
59.770449
11
239.842682
21
59.199678
0
LINE
8
Shape2DView
10
239.842682
20
59.199678
11
239.700010
21
58.500400
0
LINE
8
Shape2DView
10
239.700010
20
58.500400
11
239.842682
21
57.801122
0
LINE
8
Shape2DView
10
239.842682
20
57.801122
11
240.228714
21
57.230351
0
LINE
8
Shape2DView
10
240.228714
20
57.230351
11
240.800392
21
56.845666
0
LINE
8
Shape2DView
10
240.800392
20
56.845666
11
241.500005
21
56.704643
0
LINE
8
Shape2DView
10
241.500005
20
56.704643
11
242.199618
21
56.845666
0
LINE
8
Shape2DView
10
242.199618
20
56.845666
11
242.771296
21
57.230351
0
LINE
8
Shape2DView
10
242.771296
20
57.230351
11
243.157328
21
57.801122
0
LINE
8
Shape2DView
10
243.157328
20
57.801122
11
243.300000
21
58.500400
0
LINE
8
Shape2DView
10
243.300000
20
58.500400
11
243.300000
21
58.500400
0
LINE
8
Shape2DView
10
0.000000
20
56.000300
11
244.000000
21
56.000300
0
LINE
8
Shape2DView
10
244.000000
20
56.000300
11
244.000000
21
300.000000
0
LINE
8
Shape2DView
10
4.299990
20
297.500000
11
4.058836
21
298.400000
0
LINE
8
Shape2DView
10
4.058836
20
298.400000
11
3.399990
21
299.058846
0
LINE
8
Shape2DView
10
3.399990
20
299.058846
11
2.499990
21
299.300000
0
LINE
8
Shape2DView
10
2.499990
20
299.300000
11
1.599990
21
299.058846
0
LINE
8
Shape2DView
10
1.599990
20
299.058846
11
0.941144
21
298.400000
0
LINE
8
Shape2DView
10
0.941144
20
298.400000
11
0.699990
21
297.500000
0
LINE
8
Shape2DView
10
0.699990
20
297.500000
11
0.941144
21
296.600000
0
LINE
8
Shape2DView
10
0.941144
20
296.600000
11
1.599990
21
295.941154
0
LINE
8
Shape2DView
10
1.599990
20
295.941154
11
2.499990
21
295.700000
0
LINE
8
Shape2DView
10
2.499990
20
295.700000
11
3.399990
21
295.941154
0
LINE
8
Shape2DView
10
3.399990
20
295.941154
11
4.058836
21
296.600000
0
LINE
8
Shape2DView
10
4.058836
20
296.600000
11
4.299990
21
297.500000
0
LINE
8
Shape2DView
10
4.299990
20
297.500000
11
4.299990
21
297.500000
0
LINE
8
Shape2DView
10
243.300000
20
297.500000
11
243.157328
21
298.199278
0
LINE
8
Shape2DView
10
243.157328
20
298.199278
11
242.771296
21
298.770049
0
LINE
8
Shape2DView
10
242.771296
20
298.770049
11
242.199618
21
299.154734
0
LINE
8
Shape2DView
10
242.199618
20
299.154734
11
241.500005
21
299.295757
0
LINE
8
Shape2DView
10
241.500005
20
299.295757
11
240.800392
21
299.154734
0
LINE
8
Shape2DView
10
240.800392
20
299.154734
11
240.228714
21
298.770049
0
LINE
8
Shape2DView
10
240.228714
20
298.770049
11
239.842682
21
298.199278
0
LINE
8
Shape2DView
10
239.842682
20
298.199278
11
239.700010
21
297.500000
0
LINE
8
Shape2DView
10
239.700010
20
297.500000
11
239.842682
21
296.800722
0
LINE
8
Shape2DView
10
239.842682
20
296.800722
11
240.228714
21
296.229951
0
LINE
8
Shape2DView
10
240.228714
20
296.229951
11
240.800392
21
295.845266
0
LINE
8
Shape2DView
10
240.800392
20
295.845266
11
241.500005
21
295.704243
0
LINE
8
Shape2DView
10
241.500005
20
295.704243
11
242.199618
21
295.845266
0
LINE
8
Shape2DView
10
242.199618
20
295.845266
11
242.771296
21
296.229951
0
LINE
8
Shape2DView
10
242.771296
20
296.229951
11
243.157328
21
296.800722
0
LINE
8
Shape2DView
10
243.157328
20
296.800722
11
243.300000
21
297.500000
0
LINE
8
Shape2DView
10
243.300000
20
297.500000
11
243.300000
21
297.500000
 0 
ENDSEC
 0 
EOF