999
FreeCAD v1.0 38641 +468 (Git)
  0
SECTION
  2
HEADER
  9
$ACADVER
  1
AC1014
  9
$ACADMAINTVER
 70
     9
  9
$DWGCODEPAGE
  3
ANSI_1252
  9
$TEXTSTYLE
  7
STANDARD
  9
$DIMSTYLE
  2
STANDARD
  9
$DIMTXSTY
  7
STANDARD
  9
$CMLSTYLE
  2
STANDARD
  9
$LUNITS
 70
2
  9
$INSUNITS
 70
4
  9
$PEXTMAX
 10
50
 20
50
 30
50
  9
$PEXTMIN
 10
0
 20
0
 30
0
  9
$HANDSEED
  5
FFFF
  0
ENDSEC
  0
SECTION
  2
CLASSES
  0
CLASS
  1
ACDBDICTIONARYWDFLT
  2
AcDbDictionaryWithDefault
  3
ObjectDBX Classes
 90
        0
280
     0
281
     0
  0
CLASS
  1
XRECORD
  2
AcDbXrecord
  3
ObjectDBX Classes
 90
        0
280
     0
281
     0
  0
CLASS
  1
LWPOLYLINE
  2
AcDbPolyline
  3
ObjectDBX Classes
 90
        0
280
     0
281
     1
  0
ENDSEC
  0
SECTION
  2
TABLES
  0
TABLE
  2
VPORT
  5
20
330
0
100
AcDbSymbolTable
 70
     1
  0
VPORT
  5
21
330
20
100
AcDbSymbolTableRecord
100
AcDbViewportTableRecord
  2
*ACTIVE
 70
     0
  0
ENDTAB
  0
TABLE
  2
LTYPE
  5
22
330
0
100
AcDbSymbolTable
 70
     1
  0
LTYPE
  5
23
330
21
100
AcDbSymbolTableRecord
100
AcDbLinetypeTableRecord
  2
BYBLOCK
 70
     0
  3

 72
    65
 73
     0
 40
0.0
  0
LTYPE
  5
24
330
21
100
AcDbSymbolTableRecord
100
AcDbLinetypeTableRecord
  2
BYLAYER
 70
     0
  3

 72
    65
 73
     0
 40
0.0
  0
LTYPE
  5
25
330
21
100
AcDbSymbolTableRecord
100
AcDbLinetypeTableRecord
  2
CONTINUOUS
 70
     0
  3
Solid line
 72
    65
 73
     0
 40
0.0
  0
ENDTAB
  0
TABLE
  2
LAYER
  5
A2E
330
0
100
AcDbSymbolTable
 70
3
  0
LAYER
  5
A2F
330
A2E
100
AcDbSymbolTableRecord
100
AcDbLayerTableRecord
  2
0
 70
   0
 62
   7
  6
CONTINUOUS
  0
LAYER
  5
A30
330
A2E
100
AcDbSymbolTableRecord
100
AcDbLayerTableRecord
  2
none
 70
    0
 62
    7
  6
CONTINUOUS
  0
LAYER
  5
A31
330
A2E
100
AcDbSymbolTableRecord
100
AcDbLayerTableRecord
  2
Shape2DView
 70
    0
 62
    7
  6
CONTINUOUS
  0
ENDTAB
  0
TABLE
  2
STYLE
  5
70
330
0
100
AcDbSymbolTable
 70
     2
  0
STYLE
  5
71
330
70
100
AcDbSymbolTableRecord
100
AcDbTextStyleTableRecord
  2
STANDARD
 70
     0
 40
0.0
 41
1.0
 50
0.0
 71
     0
 42
2.5
  3
arial.ttf
  4

  0
STYLE
  5
72
330
70
100
AcDbSymbolTableRecord
100
AcDbTextStyleTableRecord
  2
ANNOTATIVE
 70
     0
 40
0.0
 41
1.0
 50
0.0
 71
     0
 42
2.5
  3
arial.ttf
  4

  0
ENDTAB
  0
TABLE
  2
VIEW
  5
73
330
0
100
AcDbSymbolTable
 70
     0
  0
ENDTAB
  0
TABLE
  2
UCS
  5
74
330
0
100
AcDbSymbolTable
 70
     0
  0
ENDTAB
  0
TABLE
  2
APPID
  5
75
330
0
100
AcDbSymbolTable
 70
     2
  0
APPID
  5
76
330
75
100
AcDbSymbolTableRecord
100
AcDbRegAppTableRecord
  2
ACAD
 70
     0
  0
APPID
  5
77
330
75
100
AcDbSymbolTableRecord
100
AcDbRegAppTableRecord
  2
ACADANNOTATIVE
 70
     0
  0
ENDTAB
  0
TABLE
  2
DIMSTYLE
  5
78
330
0
100
AcDbSymbolTable
 70
     2
  0
DIMSTYLE
105
79
330
78
100
AcDbSymbolTableRecord
100
AcDbDimStyleTableRecord
  2
STANDARD
 70
     0
  3

  4

  5

  6

  7

 40
0.0
 41
2.5
 42
0.625
 43
3.75
 44
1.25
 45
0.0
 46
0.0
 47
0.0
 48
0.0
140
2.5
141
2.5
142
0.0
143
0.03937007874016
144
1.0
145
0.0
146
1.0
147
0.625
 71
     0
 72
     0
 73
     0
 74
     0
 75
     0
 76
     0
 77
     1
 78
     8
170
     0
171
     3
172
     1
173
     0
174
     0
175
     0
176
     0
177
     0
178
     0
270
     2
271
     2
272
     2
273
     2
274
     3
340
71
275
     0
280
     0
281
     0
282
     0
283
     0
284
     8
285
     0
286
     0
287
     3
288
     0
  0
ENDTAB
  0
TABLE
  2
BLOCK_RECORD
  5
A01
330
0
100
AcDbSymbolTable
  70
5
  0
BLOCK_RECORD
  5
A02
330
A01
100
AcDbSymbolTableRecord
100
AcDbBlockTableRecord
  2
*MODEL_SPACE
  0
BLOCK_RECORD
  5
A03
330
A01
100
AcDbSymbolTableRecord
100
AcDbBlockTableRecord
  2
*PAPER_SPACE
  0
ENDTAB
  0
ENDSEC
  0
SECTION
  2
BLOCKS
  0
BLOCK
  5
A04
330
A02
100
AcDbEntity
  8
0
100
AcDbBlockBegin
  2
*MODEL_SPACE
 70
   0
 10
0
 20
0
 30
0
  3
*MODEL_SPACE
  1
 
  0
ENDBLK
  5
A05
330
A02
100
AcDbEntity
  8
0
100
AcDbBlockEnd
  0
BLOCK
  5
A06
330
A03
100
AcDbEntity
 67
1
  8
0
100
AcDbBlockBegin
  2
*PAPER_SPACE
 70
   0
 10
0
 20
0
 30
0
  3
*PAPER_SPACE
  1
 
  0
ENDBLK
  5
A07
330
A03
100
AcDbEntity
 67
    1
  8
0
100
AcDbBlockEnd
  0
ENDSEC
  0
SECTION
  2
ENTITIES
  0
LINE
  5
A08
330
A02
100
AcDbEntity
  8
Shape2DView
100
AcDbLine
 10
-5.500000000
 20
5.500000000
 30
0.000000000
 11
-233.500000000
 21
5.500000000
 31
0.000000000
  0
LINE
  5
A09
330
A02
100
AcDbEntity
  8
Shape2DView
100
AcDbLine
 10
-5.500000000
 20
233.500000000
 30
0.000000000
 11
-5.500000000
 21
5.500000000
 31
0.000000000
  0
LINE
  5
A0A
330
A02
100
AcDbEntity
  8
Shape2DView
100
AcDbLine
 10
-233.500000000
 20
5.500000000
 30
0.000000000
 11
-233.500000000
 21
233.500000000
 31
0.000000000
  0
LINE
  5
A0B
330
A02
100
AcDbEntity
  8
Shape2DView
100
AcDbLine
 10
-233.500000000
 20
233.500000000
 30
0.000000000
 11
-5.500000000
 21
233.500000000
 31
0.000000000
  0
CIRCLE
  5
A0C
330
A02
100
AcDbEntity
  8
Shape2DView
100
AcDbCircle
 10
-10.500000000
 20
10.500000000
 30
0.000000000
 40
1.800000000
  0
SPLINE
  5
A0D
330
A02
100
AcDbEntity
  8
Shape2DView
100
AcDbSpline
210
0
220
0
230
1
 70
8
 71
1
 72
4
 73
2
 74
0
 40
0.000000000
 40
0.000000000
 40
3.400000000
 40
3.400000000
 10
-27.854205718
 20
122.531181664
 30
0.000000000
 10
-24.529743143
 20
121.818476549
 30
0.000000000
  0
SPLINE
  5
A0E
330
A02
100
AcDbEntity
  8
Shape2DView
100
AcDbSpline
210
0
220
0
230
1
 70
8
 71
3
 72
29
 73
25
 74
0
 40
0.000000000
 40
0.000000000
 40
0.000000000
 40
0.000000000
 40
17.541526028
 40
17.541526028
 40
17.541526028
 40
35.883605768
 40
35.883605768
 40
35.883605768
 40
54.595005693
 40
54.595005693
 40
54.595005693
 40
72.517725228
 40
72.517725228
 40
72.517725228
 40
90.363594338
 40
90.363594338
 40
90.363594338
 40
108.863331593
 40
108.863331593
 40
108.863331593
 40
126.922868428
 40
126.922868428
 40
126.922868428
 40
145.391663980
 40
145.391663980
 40
145.391663980
 40
145.391663980
 10
-27.854205718
 20
122.531181664
 30
0.000000000
 10
-29.073552646
 20
116.846232118
 30
0.000000000
 10
-30.452342472
 20
111.200057033
 30
0.000000000
 10
-32.063731044
 20
105.629413857
 30
0.000000000
 10
-33.749770251
 20
99.806081152
 30
0.000000000
 10
-35.690121470
 20
94.062852397
 30
0.000000000
 10
-38.002480584
 20
88.485709141
 30
0.000000000
 10
-40.361165040
 20
82.798669182
 30
0.000000000
 10
-43.113203994
 20
77.283776463
 30
0.000000000
 10
-46.383130615
 20
72.104652757
 30
0.000000000
 10
-49.511346541
 20
67.143909833
 30
0.000000000
 10
-53.123617786
 20
62.501432274
 30
0.000000000
 10
-57.219717339
 20
58.327067418
 30
0.000000000
 10
-61.293596347
 20
54.166202237
 30
0.000000000
 10
-65.840992189
 20
50.476972289
 30
0.000000000
 10
-70.720876873
 20
47.274331297
 30
0.000000000
 10
-75.779197163
 20
43.950056035
 30
0.000000000
 10
-81.183234196
 20
41.139918047
 30
0.000000000
 10
-86.768946539
 20
38.728948097
 30
0.000000000
 10
-92.223941637
 20
36.374827190
 30
0.000000000
 10
-97.852095137
 20
34.394687113
 30
0.000000000
 10
-103.564879299
 20
32.673243048
 30
0.000000000
 10
-109.408820543
 20
30.913933942
 30
0.000000000
 10
-115.343335748
 20
29.424405311
 30
0.000000000
 10
-121.322395051
 20
28.115951060
 30
0.000000000
  0
SPLINE
  5
A0F
330
A02
100
AcDbEntity
  8
Shape2DView
100
AcDbSpline
210
0
220
0
230
1
 70
8
 71
3
 72
29
 73
25
 74
0
 40
0.000000000
 40
0.000000000
 40
0.000000000
 40
0.000000000
 40
17.541526028
 40
17.541526028
 40
17.541526028
 40
35.883605768
 40
35.883605768
 40
35.883605768
 40
54.595005693
 40
54.595005693
 40
54.595005693
 40
72.517725228
 40
72.517725228
 40
72.517725228
 40
90.363594338
 40
90.363594338
 40
90.363594338
 40
108.863331593
 40
108.863331593
 40
108.863331593
 40
126.922868428
 40
126.922868428
 40
126.922868428
 40
145.391663980
 40
145.391663980
 40
145.391663980
 40
145.391663980
 10
-24.529743143
 20
121.818476549
 30
0.000000000
 10
-25.762824632
 20
116.069732965
 30
0.000000000
 10
-27.159458548
 20
110.348064990
 30
0.000000000
 10
-28.797734512
 20
104.684286004
 30
0.000000000
 10
-30.512087687
 20
98.763613766
 30
0.000000000
 10
-32.490403010
 20
92.903241240
 30
0.000000000
 10
-34.861922725
 20
87.183059404
 30
0.000000000
 10
-37.280985583
 20
81.350713289
 30
0.000000000
 10
-40.116578495
 20
75.661643298
 30
0.000000000
 10
-43.508085098
 20
70.289683535
 30
0.000000000
 10
-46.751885893
 20
65.145038001
 30
0.000000000
 10
-50.517161018
 20
60.302806711
 30
0.000000000
 10
-54.791634847
 20
55.947064180
 30
0.000000000
 10
-59.042435777
 20
51.605039362
 30
0.000000000
 10
-63.788356086
 20
47.756844126
 30
0.000000000
 10
-68.853862647
 20
44.432807431
 30
0.000000000
 10
-74.105352797
 20
40.981722895
 30
0.000000000
 10
-79.686758021
 20
38.082726134
 30
0.000000000
 10
-85.421347330
 20
35.607413799
 30
0.000000000
 10
-91.022317853
 20
33.190442973
 30
0.000000000
 10
-96.771096321
 20
31.169549204
 30
0.000000000
 10
-102.584330283
 20
29.417705669
 30
0.000000000
 10
-108.531069604
 20
27.627521127
 30
0.000000000
 10
-114.547918473
 20
26.118080685
 30
0.000000000
 10
-120.595943439
 20
24.794465240
 30
0.000000000
  0
SPLINE
  5
A10
330
A02
100
AcDbEntity
  8
Shape2DView
100
AcDbSpline
210
0
220
0
230
1
 70
8
 71
1
 72
4
 73
2
 74
0
 40
0.000000000
 40
0.000000000
 40
3.400000000
 40
3.400000000
 10
-121.322395051
 20
28.115951060
 30
0.000000000
 10
-120.595943439
 20
24.794465240
 30
0.000000000
  0
SPLINE
  5
A11
330
A02
100
AcDbEntity
  8
Shape2DView
100
AcDbSpline
210
0
220
0
230
1
 70
8
 71
1
 72
4
 73
2
 74
0
 40
0.000000000
 40
0.000000000
 40
3.400000000
 40
3.400000000
 10
-29.845212272
 20
170.683549518
 30
0.000000000
 10
-26.490732327
 20
170.129054880
 30
0.000000000
  0
SPLINE
  5
A12
330
A02
100
AcDbEntity
  8
Shape2DView
100
AcDbSpline
210
0
220
0
230
1
 70
8
 71
3
 72
35
 73
31
 74
0
 40
0.000000000
 40
0.000000000
 40
0.000000000
 40
0.000000000
 40
27.151674857
 40
27.151674857
 40
27.151674857
 40
55.493373964
 40
55.493373964
 40
55.493373964
 40
82.789786357
 40
82.789786357
 40
82.789786357
 40
96.128806114
 40
96.128806114
 40
96.128806114
 40
109.955844182
 40
109.955844182
 40
109.955844182
 40
123.744597408
 40
123.744597408
 40
123.744597408
 40
138.028504614
 40
138.028504614
 40
138.028504614
 40
165.146749487
 40
165.146749487
 40
165.146749487
 40
193.250340607
 40
193.250340607
 40
193.250340607
 40
220.152296101
 40
220.152296101
 40
220.152296101
 40
220.152296101
 10
-29.845212272
 20
170.683549518
 30
0.000000000
 10
-31.317732123
 20
161.783153815
 30
0.000000000
 10
-33.007848684
 20
152.922399628
 30
0.000000000
 10
-35.043565378
 20
144.150368975
 30
0.000000000
 10
-37.171861269
 20
134.996940800
 30
0.000000000
 10
-39.673347416
 20
125.933584670
 30
0.000000000
 10
-42.792416895
 20
117.100819993
 30
0.000000000
 10
-45.798280050
 20
108.599700719
 30
0.000000000
 10
-49.387019393
 20
100.306872801
 30
0.000000000
 10
-53.838386490
 20
92.512314319
 30
0.000000000
 10
-56.012818269
 20
88.705024489
 30
0.000000000
 10
-58.393403268
 20
85.020959281
 30
0.000000000
 10
-60.997594430
 20
81.506192711
 30
0.000000000
 10
-63.696066699
 20
77.862513701
 30
0.000000000
 10
-66.635744850
 20
74.402361397
 30
0.000000000
 10
-69.806705809
 20
71.168329922
 30
0.000000000
 10
-72.967867227
 20
67.942293469
 30
0.000000000
 10
-76.358180468
 20
64.942164190
 30
0.000000000
 10
-79.938392508
 20
62.182511257
 30
0.000000000
 10
-83.646737961
 20
59.322604965
 30
0.000000000
 10
-87.557103293
 20
56.720326554
 30
0.000000000
 10
-91.612938871
 20
54.357280800
 30
0.000000000
 10
-99.316307107
 20
49.868842416
 30
0.000000000
 10
-107.526537957
 20
46.241620256
 30
0.000000000
 10
-115.951423652
 20
43.202759249
 30
0.000000000
 10
-124.688453145
 20
40.055084028
 30
0.000000000
 10
-133.661472268
 20
37.527811694
 30
0.000000000
 10
-142.727235077
 20
35.377390229
 30
0.000000000
 10
-151.408343901
 20
33.322058553
 30
0.000000000
 10
-160.180497949
 20
31.614883522
 30
0.000000000
 10
-168.993425852
 20
30.127395558
 30
0.000000000
  0
SPLINE
  5
A13
330
A02
100
AcDbEntity
  8
Shape2DView
100
AcDbSpline
210
0
220
0
230
1
 70
8
 71
3
 72
35
 73
31
 74
0
 40
0.000000000
 40
0.000000000
 40
0.000000000
 40
0.000000000
 40
27.151674857
 40
27.151674857
 40
27.151674857
 40
55.493373964
 40
55.493373964
 40
55.493373964
 40
82.789786357
 40
82.789786357
 40
82.789786357
 40
96.128806114
 40
96.128806114
 40
96.128806114
 40
109.955844182
 40
109.955844182
 40
109.955844182
 40
123.744597408
 40
123.744597408
 40
123.744597408
 40
138.028504614
 40
138.028504614
 40
138.028504614
 40
165.146749487
 40
165.146749487
 40
165.146749487
 40
193.250340607
 40
193.250340607
 40
193.250340607
 40
220.152296101
 40
220.152296101
 40
220.152296101
 40
220.152296101
 10
-26.490732327
 20
170.129054880
 30
0.000000000
 10
-27.972685619
 20
161.172016863
 30
0.000000000
 10
-29.675299798
 20
152.242679175
 30
0.000000000
 10
-31.731703059
 20
143.381234408
 30
0.000000000
 10
-33.881950138
 20
134.134352934
 30
0.000000000
 10
-36.413556772
 20
124.954528708
 30
0.000000000
 10
-39.586766723
 20
115.967767929
 30
0.000000000
 10
-42.645143355
 20
107.319018631
 30
0.000000000
 10
-46.309472203
 20
98.840515001
 30
0.000000000
 10
-50.886080689
 20
90.825930479
 30
0.000000000
 10
-53.121627257
 20
86.911605285
 30
0.000000000
 10
-55.575400025
 20
83.113117077
 30
0.000000000
 10
-58.265601222
 20
79.482282359
 30
0.000000000
 10
-61.053042462
 20
75.718365553
 30
0.000000000
 10
-64.095632541
 20
72.136531214
 30
0.000000000
 10
-67.378623317
 20
68.788326684
 30
0.000000000
 10
-70.651369512
 20
65.448324025
 30
0.000000000
 10
-74.161943358
 20
62.342136032
 30
0.000000000
 10
-77.862297174
 20
59.489960763
 30
0.000000000
 10
-81.695170080
 20
56.533994644
 30
0.000000000
 10
-85.729465567
 20
53.850146948
 30
0.000000000
 10
-89.901059912
 20
51.419684771
 30
0.000000000
 10
-97.825241746
 20
46.802986551
 30
0.000000000
 10
-106.223456132
 20
43.097523270
 30
0.000000000
 10
-114.798093072
 20
40.004348929
 30
0.000000000
 10
-123.691076821
 20
36.800731971
 30
0.000000000
 10
-132.782540544
 20
34.242180103
 30
0.000000000
 10
-141.943381050
 20
32.068980813
 30
0.000000000
 10
-150.715403487
 20
29.992190128
 30
0.000000000
 10
-159.557406627
 20
28.272025973
 30
0.000000000
 10
-168.428036472
 20
26.774734697
 30
0.000000000
  0
SPLINE
  5
A14
330
A02
100
AcDbEntity
  8
Shape2DView
100
AcDbSpline
210
0
220
0
230
1
 70
8
 71
1
 72
4
 73
2
 74
0
 40
0.000000000
 40
0.000000000
 40
3.400000000
 40
3.400000000
 10
-168.993425852
 20
30.127395558
 30
0.000000000
 10
-168.428036472
 20
26.774734697
 30
0.000000000
  0
CIRCLE
  5
A15
330
A02
100
AcDbEntity
  8
Shape2DView
100
AcDbCircle
 10
-228.500000000
 20
10.500000000
 30
0.000000000
 40
1.800000000
  0
CIRCLE
  5
A16
330
A02
100
AcDbEntity
  8
Shape2DView
100
AcDbCircle
 10
-10.500000000
 20
228.500000000
 30
0.000000000
 40
1.800000000
  0
LINE
  5
A17
330
A02
100
AcDbEntity
  8
Shape2DView
100
AcDbLine
 10
-36.175819583
 20
208.981491990
 30
0.000000000
 11
-32.821339639
 21
208.426997352
 31
0.000000000
  0
SPLINE
  5
A18
330
A02
100
AcDbEntity
  8
Shape2DView
100
AcDbSpline
210
0
220
0
230
1
 70
8
 71
3
 72
35
 73
31
 74
0
 40
0.000000000
 40
0.000000000
 40
0.000000000
 40
0.000000000
 40
33.253874531
 40
33.253874531
 40
33.253874531
 40
67.965225159
 40
67.965225159
 40
67.965225159
 40
101.396366244
 40
101.396366244
 40
101.396366244
 40
117.733262281
 40
117.733262281
 40
117.733262281
 40
134.667856242
 40
134.667856242
 40
134.667856242
 40
151.555561038
 40
151.555561038
 40
151.555561038
 40
169.049703132
 40
169.049703132
 40
169.049703132
 40
202.262634461
 40
202.262634461
 40
202.262634461
 40
236.682363554
 40
236.682363554
 40
236.682363554
 40
269.630395574
 40
269.630395574
 40
269.630395574
 40
269.630395574
 10
-36.175819583
 20
208.981491990
 30
0.000000000
 10
-37.980340775
 20
198.074412972
 30
0.000000000
 10
-40.051706762
 20
187.214542827
 30
0.000000000
 10
-42.547264936
 20
176.460995587
 30
0.000000000
 10
-45.156351126
 20
165.239879788
 30
0.000000000
 10
-48.223418167
 20
154.126493053
 30
0.000000000
 10
-52.049566409
 20
143.291304901
 30
0.000000000
 10
-55.736882960
 20
132.863013124
 30
0.000000000
 10
-60.140667241
 20
122.685549831
 30
0.000000000
 10
-65.606529944
 20
113.114479443
 30
0.000000000
 10
-68.276521731
 20
108.439492925
 30
0.000000000
 10
-71.200355287
 20
103.914594965
 30
0.000000000
 10
-74.399490214
 20
99.596859774
 30
0.000000000
 10
-77.714427946
 20
95.120771179
 30
0.000000000
 10
-81.326348150
 20
90.869293683
 30
0.000000000
 10
-85.222555385
 20
86.895600317
 30
0.000000000
 10
-89.106710669
 20
82.931722059
 30
0.000000000
 10
-93.272493411
 20
79.245411026
 30
0.000000000
 10
-97.670840362
 20
75.855143295
 30
0.000000000
 10
-102.226610891
 20
72.341693255
 30
0.000000000
 10
-107.029737110
 20
69.145399977
 30
0.000000000
 10
-112.010109027
 20
66.243696062
 30
0.000000000
 10
-121.469583128
 20
60.732091301
 30
0.000000000
 10
-131.546145422
 20
56.280877417
 30
0.000000000
 10
-141.881308882
 20
52.552944662
 30
0.000000000
 10
-152.599465900
 20
48.691559272
 30
0.000000000
 10
-163.602434955
 20
45.592780486
 30
0.000000000
 10
-174.716365583
 20
42.956503222
 30
0.000000000
 10
-185.358725280
 20
40.436834897
 30
0.000000000
 10
-196.110225078
 20
38.344521405
 30
0.000000000
 10
-206.910297430
 20
36.521626531
 30
0.000000000
  0
SPLINE
  5
A19
330
A02
100
AcDbEntity
  8
Shape2DView
100
AcDbSpline
210
0
220
0
230
1
 70
8
 71
3
 72
35
 73
31
 74
0
 40
0.000000000
 40
0.000000000
 40
0.000000000
 40
0.000000000
 40
33.253874531
 40
33.253874531
 40
33.253874531
 40
67.965225159
 40
67.965225159
 40
67.965225159
 40
101.396366244
 40
101.396366244
 40
101.396366244
 40
117.733262281
 40
117.733262281
 40
117.733262281
 40
134.667856242
 40
134.667856242
 40
134.667856242
 40
151.555561038
 40
151.555561038
 40
151.555561038
 40
169.049703132
 40
169.049703132
 40
169.049703132
 40
202.262634461
 40
202.262634461
 40
202.262634461
 40
236.682363554
 40
236.682363554
 40
236.682363554
 40
269.630395574
 40
269.630395574
 40
269.630395574
 40
269.630395574
 10
-32.821339639
 20
208.426997352
 30
0.000000000
 10
-34.635294274
 20
197.463276003
 30
0.000000000
 10
-36.719157876
 20
186.534822372
 30
0.000000000
 10
-39.235402618
 20
175.691861020
 30
0.000000000
 10
-41.866439989
 20
164.377291944
 30
0.000000000
 10
-44.963627520
 20
153.147437102
 30
0.000000000
 10
-48.843916237
 20
142.158252837
 30
0.000000000
 10
-52.583746264
 20
131.582331037
 30
0.000000000
 10
-57.063120051
 20
121.219192031
 30
0.000000000
 10
-62.654224143
 20
111.428095603
 30
0.000000000
 10
-65.385330720
 20
106.646073721
 30
0.000000000
 10
-68.382352044
 20
102.006752761
 30
0.000000000
 10
-71.667497007
 20
97.572949421
 30
0.000000000
 10
-75.071403709
 20
92.976623031
 30
0.000000000
 10
-78.786235841
 20
88.603463501
 30
0.000000000
 10
-82.794472893
 20
84.515597079
 30
0.000000000
 10
-86.790212961
 20
80.437752609
 30
0.000000000
 10
-91.076256286
 20
76.645382881
 30
0.000000000
 10
-95.594745028
 20
73.162592801
 30
0.000000000
 10
-100.275043009
 20
69.553082934
 30
0.000000000
 10
-105.202099384
 20
66.275220372
 30
0.000000000
 10
-110.298230068
 20
63.306100033
 30
0.000000000
 10
-119.978517767
 20
57.666235435
 30
0.000000000
 10
-130.243063598
 20
53.136780431
 30
0.000000000
 10
-140.727978301
 20
49.354534342
 30
0.000000000
 10
-151.602089586
 20
45.437207211
 30
0.000000000
 10
-162.723503251
 20
42.307148889
 30
0.000000000
 10
-173.932511555
 20
39.648093806
 30
0.000000000
 10
-184.665784865
 20
37.106966472
 30
0.000000000
 10
-195.487133739
 20
35.001663860
 30
0.000000000
 10
-206.344908049
 20
33.168965670
 30
0.000000000
  0
SPLINE
  5
A1A
330
A02
100
AcDbEntity
  8
Shape2DView
100
AcDbSpline
210
0
220
0
230
1
 70
8
 71
1
 72
4
 73
2
 74
0
 40
0.000000000
 40
0.000000000
 40
3.400000000
 40
3.400000000
 10
-206.910297430
 20
36.521626531
 30
0.000000000
 10
-206.344908049
 20
33.168965670
 30
0.000000000
  0
SPLINE
  5
A1B
330
A02
100
AcDbEntity
  8
Shape2DView
100
AcDbSpline
210
0
220
0
230
1
 70
8
 71
1
 72
4
 73
2
 74
0
 40
0.000000000
 40
0.000000000
 40
3.400000000
 40
3.400000000
 10
-47.028061752
 20
211.969363976
 30
0.000000000
 10
-43.703599176
 20
211.256658861
 30
0.000000000
  0
SPLINE
  5
A1C
330
A02
100
AcDbEntity
  8
Shape2DView
100
AcDbSpline
210
0
220
0
230
1
 70
8
 71
3
 72
29
 73
25
 74
0
 40
0.000000000
 40
0.000000000
 40
0.000000000
 40
0.000000000
 40
30.382814323
 40
30.382814323
 40
30.382814323
 40
62.152228349
 40
62.152228349
 40
62.152228349
 40
94.561323700
 40
94.561323700
 40
94.561323700
 40
125.604384545
 40
125.604384545
 40
125.604384545
 40
156.514336549
 40
156.514336549
 40
156.514336549
 40
188.556821399
 40
188.556821399
 40
188.556821399
 40
219.836856759
 40
219.836856759
 40
219.836856759
 40
251.825749010
 40
251.825749010
 40
251.825749010
 40
251.825749010
 10
-47.028061752
 20
211.969363976
 30
0.000000000
 10
-49.145059781
 20
202.099392285
 30
0.000000000
 10
-51.539725204
 20
192.292297854
 30
0.000000000
 10
-54.340573549
 20
182.609570769
 30
0.000000000
 10
-57.271242752
 20
172.487633924
 30
0.000000000
 10
-60.645925476
 20
162.497192305
 30
0.000000000
 10
-64.672703226
 20
152.784941080
 30
0.000000000
 10
-68.780164572
 20
142.881513191
 30
0.000000000
 10
-73.577418736
 20
133.265685488
 30
0.000000000
 10
-79.285599144
 20
124.224597194
 30
0.000000000
 10
-84.746135043
 20
115.565025399
 30
0.000000000
 10
-91.058775726
 20
107.450903405
 30
0.000000000
 10
-98.218717750
 20
100.154302578
 30
0.000000000
 10
-105.339641064
 20
92.881163681
 30
0.000000000
 10
-113.288626753
 20
86.433044589
 30
0.000000000
 10
-121.808777263
 20
80.841473779
 30
0.000000000
 10
-130.640750083
 20
75.037244712
 30
0.000000000
 10
-140.065738057
 20
70.137418372
 30
0.000000000
 10
-149.794968381
 20
65.937944975
 30
0.000000000
 10
-159.296727767
 20
61.837483293
 30
0.000000000
 10
-169.089127374
 20
58.392863185
 30
0.000000000
 10
-179.020726976
 20
55.400107623
 30
0.000000000
 10
-189.180356834
 20
52.341593672
 30
0.000000000
 10
-199.489374900
 20
49.754366176
 30
0.000000000
 10
-209.870652580
 20
47.482507550
 30
0.000000000
  0
SPLINE
  5
A1D
330
A02
100
AcDbEntity
  8
Shape2DView
100
AcDbSpline
210
0
220
0
230
1
 70
8
 71
3
 72
35
 73
31
 74
0
 40
0.000000000
 40
0.000000000
 40
0.000000000
 40
0.000000000
 40
30.382814323
 40
30.382814323
 40
30.382814323
 40
62.152228349
 40
62.152228349
 40
62.152228349
 40
94.561323700
 40
94.561323700
 40
94.561323700
 40
110.282746706
 40
110.282746706
 40
110.282746706
 40
125.604384545
 40
125.604384545
 40
125.604384545
 40
140.892557148
 40
140.892557148
 40
140.892557148
 40
156.514336549
 40
156.514336549
 40
156.514336549
 40
188.556821399
 40
188.556821399
 40
188.556821399
 40
219.836856759
 40
219.836856759
 40
219.836856759
 40
251.825749010
 40
251.825749010
 40
251.825749010
 40
251.825749010
 10
-43.703599176
 20
211.256658861
 30
0.000000000
 10
-45.834331767
 20
201.322893132
 30
0.000000000
 10
-48.246841279
 20
191.440305811
 30
0.000000000
 10
-51.074577017
 20
181.664442917
 30
0.000000000
 10
-54.033560192
 20
171.445166524
 30
0.000000000
 10
-57.446207010
 20
161.337581166
 30
0.000000000
 10
-61.532145368
 20
151.482291343
 30
0.000000000
 10
-65.699985114
 20
141.433557304
 30
0.000000000
 10
-70.580793240
 20
131.643552318
 30
0.000000000
 10
-76.410553627
 20
122.409627973
 30
0.000000000
 10
-79.237106897
 20
117.931625630
 30
0.000000000
 10
-82.285491389
 20
113.587882868
 30
0.000000000
 10
-85.563952542
 20
109.420627709
 30
0.000000000
 10
-88.758326507
 20
105.359114126
 30
0.000000000
 10
-92.171354900
 20
101.466092453
 30
0.000000000
 10
-95.790635259
 20
97.774299340
 30
0.000000000
 10
-99.401385626
 20
94.089990635
 30
0.000000000
 10
-103.216980937
 20
90.606636345
 30
0.000000000
 10
-107.207256410
 20
87.340225516
 30
0.000000000
 10
-111.284298427
 20
84.001800600
 30
0.000000000
 10
-115.542835661
 20
80.889875597
 30
0.000000000
 10
-119.941763037
 20
77.999949914
 30
0.000000000
 10
-128.966905714
 20
72.068911573
 30
0.000000000
 10
-138.569261897
 20
67.080226451
 30
0.000000000
 10
-148.447369171
 20
62.816410678
 30
0.000000000
 10
-158.095103987
 20
58.653099075
 30
0.000000000
 10
-168.008128558
 20
55.167725275
 30
0.000000000
 10
-178.040177959
 20
52.144570244
 30
0.000000000
 10
-188.302605896
 20
49.055180857
 30
0.000000000
 10
-198.693957626
 20
46.448041549
 30
0.000000000
 10
-209.144200968
 20
44.161021730
 30
0.000000000
  0
SPLINE
  5
A1E
330
A02
100
AcDbEntity
  8
Shape2DView
100
AcDbSpline
210
0
220
0
230
1
 70
8
 71
1
 72
4
 73
2
 74
0
 40
0.000000000
 40
0.000000000
 40
3.400000000
 40
3.400000000
 10
-209.870652580
 20
47.482507550
 30
0.000000000
 10
-209.144200968
 20
44.161021730
 30
0.000000000
  0
SPLINE
  5
A1F
330
A02
100
AcDbEntity
  8
Shape2DView
100
AcDbSpline
210
0
220
0
230
1
 70
8
 71
1
 72
4
 73
2
 74
0
 40
0.000000000
 40
0.000000000
 40
3.400000000
 40
3.400000000
 10
-63.718716994
 20
206.639485458
 30
0.000000000
 10
-60.463180439
 20
205.658933705
 30
0.000000000
  0
SPLINE
  5
A20
330
A02
100
AcDbEntity
  8
Shape2DView
100
AcDbSpline
210
0
220
0
230
1
 70
8
 71
3
 72
29
 73
25
 74
0
 40
0.000000000
 40
0.000000000
 40
0.000000000
 40
0.000000000
 40
26.574802927
 40
26.574802927
 40
26.574802927
 40
52.512780461
 40
52.512780461
 40
52.512780461
 40
79.749061156
 40
79.749061156
 40
79.749061156
 40
105.610193066
 40
105.610193066
 40
105.610193066
 40
131.389745013
 40
131.389745013
 40
131.389745013
 40
158.384867157
 40
158.384867157
 40
158.384867157
 40
185.909383239
 40
185.909383239
 40
185.909383239
 40
212.276439943
 40
212.276439943
 40
212.276439943
 40
212.276439943
 10
-63.718716994
 20
206.639485458
 30
0.000000000
 10
-66.262607376
 20
198.195146115
 30
0.000000000
 10
-69.090711978
 20
189.840025327
 30
0.000000000
 10
-72.294410718
 20
181.637228814
 30
0.000000000
 10
-75.421585332
 20
173.632284102
 30
0.000000000
 10
-78.908262803
 20
165.771954663
 30
0.000000000
 10
-82.847145823
 20
158.150633576
 30
0.000000000
 10
-86.981903771
 20
150.149011335
 30
0.000000000
 10
-91.620195309
 20
142.412358881
 30
0.000000000
 10
-96.834770777
 20
135.087732420
 30
0.000000000
 10
-101.783083299
 20
128.132410669
 30
0.000000000
 10
-107.253460722
 20
121.553940587
 30
0.000000000
 10
-113.225393431
 20
115.464133216
 30
0.000000000
 10
-119.175619011
 20
109.390845193
 30
0.000000000
 10
-125.621303663
 20
103.806691948
 30
0.000000000
 10
-132.458494640
 20
98.743988084
 30
0.000000000
 10
-139.617222240
 20
93.439332811
 30
0.000000000
 10
-147.199267634
 20
88.704364064
 30
0.000000000
 10
-155.059312497
 20
84.477174530
 30
0.000000000
 10
-163.074680748
 20
80.165524721
 30
0.000000000
 10
-171.376398620
 20
76.376652695
 30
0.000000000
 10
-179.846860540
 20
73.000807007
 30
0.000000000
 10
-187.962567770
 20
69.767063097
 30
0.000000000
 10
-196.234111090
 20
66.910308337
 30
0.000000000
 10
-204.597323991
 20
64.339985814
 30
0.000000000
  0
SPLINE
  5
A21
330
A02
100
AcDbEntity
  8
Shape2DView
100
AcDbSpline
210
0
220
0
230
1
 70
8
 71
3
 72
29
 73
25
 74
0
 40
0.000000000
 40
0.000000000
 40
0.000000000
 40
0.000000000
 40
26.574802927
 40
26.574802927
 40
26.574802927
 40
52.512780461
 40
52.512780461
 40
52.512780461
 40
79.749061156
 40
79.749061156
 40
79.749061156
 40
105.610193066
 40
105.610193066
 40
105.610193066
 40
131.389745013
 40
131.389745013
 40
131.389745013
 40
158.384867157
 40
158.384867157
 40
158.384867157
 40
185.909383239
 40
185.909383239
 40
185.909383239
 40
212.276439943
 40
212.276439943
 40
212.276439943
 40
212.276439943
 10
-60.463180439
 20
205.658933705
 30
0.000000000
 10
-63.029384922
 20
197.140643560
 30
0.000000000
 10
-65.885573117
 20
188.700798852
 30
0.000000000
 10
-69.127458774
 20
180.400129228
 30
0.000000000
 10
-72.291948957
 20
172.299763840
 30
0.000000000
 10
-75.825685444
 20
164.331201229
 30
0.000000000
 10
-79.826725238
 20
156.589525160
 30
0.000000000
 10
-84.026634652
 20
148.461800052
 30
0.000000000
 10
-88.747316452
 20
140.585297125
 30
0.000000000
 10
-94.064785339
 20
133.116138985
 30
0.000000000
 10
-99.110467038
 20
126.023778729
 30
0.000000000
 10
-104.697002224
 20
119.304710315
 30
0.000000000
 10
-110.797310939
 20
113.084129978
 30
0.000000000
 10
-116.875285734
 20
106.880301594
 30
0.000000000
 10
-123.460106555
 20
101.176218407
 30
0.000000000
 10
-130.434584287
 20
96.011994877
 30
0.000000000
 10
-137.737235240
 20
90.600678062
 30
0.000000000
 10
-145.460344306
 20
85.779029379
 30
0.000000000
 10
-153.448573533
 20
81.482926713
 30
0.000000000
 10
-161.594944728
 20
77.100864526
 30
0.000000000
 10
-170.014506802
 20
73.259397399
 30
0.000000000
 10
-178.588165601
 20
69.842375901
 30
0.000000000
 10
-186.802868628
 20
66.569225393
 30
0.000000000
 10
-195.160350332
 20
63.683398324
 30
0.000000000
 10
-203.598657356
 20
61.089960437
 30
0.000000000
  0
SPLINE
  5
A22
330
A02
100
AcDbEntity
  8
Shape2DView
100
AcDbSpline
210
0
220
0
230
1
 70
8
 71
1
 72
4
 73
2
 74
0
 40
0.000000000
 40
0.000000000
 40
3.400000000
 40
3.400000000
 10
-204.597323991
 20
64.339985814
 30
0.000000000
 10
-203.598657356
 20
61.089960437
 30
0.000000000
  0
SPLINE
  5
A23
330
A02
100
AcDbEntity
  8
Shape2DView
100
AcDbSpline
210
0
220
0
230
1
 70
8
 71
1
 72
4
 73
2
 74
0
 40
0.000000000
 40
0.000000000
 40
3.400000000
 40
3.400000000
 10
-78.316197287
 20
209.135516857
 30
0.000000000
 10
-75.125271146
 20
207.961638517
 30
0.000000000
  0
SPLINE
  5
A24
330
A02
100
AcDbEntity
  8
Shape2DView
100
AcDbSpline
210
0
220
0
230
1
 70
8
 71
3
 72
26
 73
22
 74
0
 40
0.000000000
 40
0.000000000
 40
0.000000000
 40
0.000000000
 40
47.280275092
 40
47.280275092
 40
47.280275092
 40
71.537635322
 40
71.537635322
 40
71.537635322
 40
94.955893205
 40
94.955893205
 40
94.955893205
 40
118.313855714
 40
118.313855714
 40
118.313855714
 40
142.392169042
 40
142.392169042
 40
142.392169042
 40
165.915794554
 40
165.915794554
 40
165.915794554
 40
191.275883485
 40
191.275883485
 40
191.275883485
 40
191.275883485
 10
-78.316197287
 20
209.135516857
 30
0.000000000
 10
-83.729857980
 20
194.423213814
 30
0.000000000
 10
-90.153518432
 20
180.071771135
 30
0.000000000
 10
-98.029514861
 20
166.554792206
 30
0.000000000
 10
-102.068584879
 20
159.622599994
 30
0.000000000
 10
-106.489936250
 20
152.917257923
 30
0.000000000
 10
-111.322310644
 20
146.524418738
 30
0.000000000
 10
-115.985952831
 20
140.352248564
 30
0.000000000
 10
-121.033325068
 20
134.473546366
 30
0.000000000
 10
-126.446540115
 20
128.952364780
 30
0.000000000
 10
-131.844382174
 20
123.444053646
 30
0.000000000
 10
-137.604996871
 20
118.292860814
 30
0.000000000
 10
-143.669375436
 20
113.523695289
 30
0.000000000
 10
-149.920135746
 20
108.605800154
 30
0.000000000
 10
-156.491357026
 20
104.093453490
 30
0.000000000
 10
-163.299408175
 20
99.964906102
 30
0.000000000
 10
-169.950871752
 20
95.930423770
 30
0.000000000
 10
-176.826977095
 20
92.260340495
 30
0.000000000
 10
-183.857595025
 20
88.906062185
 30
0.000000000
 10
-191.437848046
 20
85.289629005
 30
0.000000000
 10
-199.197073198
 20
82.038703435
 30
0.000000000
 10
-207.070829515
 20
79.083386825
 30
0.000000000
  0
SPLINE
  5
A25
330
A02
100
AcDbEntity
  8
Shape2DView
100
AcDbSpline
210
0
220
0
230
1
 70
8
 71
3
 72
29
 73
25
 74
0
 40
0.000000000
 40
0.000000000
 40
0.000000000
 40
0.000000000
 40
23.489832090
 40
23.489832090
 40
23.489832090
 40
47.280275092
 40
47.280275092
 40
47.280275092
 40
71.537635322
 40
71.537635322
 40
71.537635322
 40
94.955893205
 40
94.955893205
 40
94.955893205
 40
118.313855714
 40
118.313855714
 40
118.313855714
 40
142.392169042
 40
142.392169042
 40
142.392169042
 40
165.915794554
 40
165.915794554
 40
165.915794554
 40
191.275883485
 40
191.275883485
 40
191.275883485
 40
191.275883485
 10
-75.125271146
 20
207.961638517
 30
0.000000000
 10
-77.842091329
 20
200.577074669
 30
0.000000000
 10
-80.813074848
 20
193.279236381
 30
0.000000000
 10
-84.096305501
 20
186.116528935
 30
0.000000000
 10
-87.421361081
 20
178.862896678
 30
0.000000000
 10
-91.068039006
 20
171.747779331
 30
0.000000000
 10
-95.091918832
 20
164.842913247
 30
0.000000000
 10
-99.193715583
 20
157.803031793
 30
0.000000000
 10
-103.689970366
 20
150.982985901
 30
0.000000000
 10
-108.609859474
 20
144.474392238
 30
0.000000000
 10
-113.357833044
 20
138.190534493
 30
0.000000000
 10
-118.501338298
 20
132.199455608
 30
0.000000000
 10
-124.018457623
 20
126.572361542
 30
0.000000000
 10
-129.519834538
 20
120.958328080
 30
0.000000000
 10
-135.391443502
 20
115.708149463
 30
0.000000000
 10
-141.567273017
 20
110.851399381
 30
0.000000000
 10
-147.932964376
 20
105.843057284
 30
0.000000000
 10
-154.619265398
 20
101.252380095
 30
0.000000000
 10
-161.536183048
 20
97.057839341
 30
0.000000000
 10
-168.294125355
 20
92.958784462
 30
0.000000000
 10
-175.270772983
 20
89.235675073
 30
0.000000000
 10
-182.393511359
 20
85.837437246
 30
0.000000000
 10
-190.073181581
 20
82.173599782
 30
0.000000000
 10
-197.922147092
 20
78.885649979
 30
0.000000000
 10
-205.876139820
 20
75.900194004
 30
0.000000000
  0
SPLINE
  5
A26
330
A02
100
AcDbEntity
  8
Shape2DView
100
AcDbSpline
210
0
220
0
230
1
 70
8
 71
1
 72
4
 73
2
 74
0
 40
0.000000000
 40
0.000000000
 40
3.400000000
 40
3.400000000
 10
-207.070829515
 20
79.083386825
 30
0.000000000
 10
-205.876139820
 20
75.900194004
 30
0.000000000
  0
LINE
  5
A27
330
A02
100
AcDbEntity
  8
Shape2DView
100
AcDbLine
 10
-92.650782817
 20
220.237286149
 30
0.000000000
 11
-89.510225455
 21
218.934635214
 31
0.000000000
  0
SPLINE
  5
A28
330
A02
100
AcDbEntity
  8
Shape2DView
100
AcDbSpline
210
0
220
0
230
1
 70
8
 71
3
 72
23
 73
19
 74
0
 40
0.000000000
 40
0.000000000
 40
0.000000000
 40
0.000000000
 40
46.778499812
 40
46.778499812
 40
46.778499812
 40
69.470419324
 40
69.470419324
 40
69.470419324
 40
91.585298651
 40
91.585298651
 40
91.585298651
 40
115.673893538
 40
115.673893538
 40
115.673893538
 40
138.291757673
 40
138.291757673
 40
138.291757673
 40
184.801796163
 40
184.801796163
 40
184.801796163
 40
184.801796163
 10
-89.510225455
 20
218.934635214
 30
0.000000000
 10
-95.512598213
 20
204.462750979
 30
0.000000000
 10
-102.538915532
 20
190.370707701
 30
0.000000000
 10
-110.926496884
 20
177.085435754
 30
0.000000000
 10
-114.993230927
 20
170.642666619
 30
0.000000000
 10
-119.378187734
 20
164.394525055
 30
0.000000000
 10
-124.093343081
 20
158.401082694
 30
0.000000000
 10
-128.687576954
 20
152.559714178
 30
0.000000000
 10
-133.595617601
 20
146.961475158
 30
0.000000000
 10
-138.800148985
 20
141.652662878
 30
0.000000000
 10
-144.468095458
 20
135.868978495
 30
0.000000000
 10
-150.487405471
 20
130.430351926
 30
0.000000000
 10
-156.801542025
 20
125.364232008
 30
0.000000000
 10
-162.729665640
 20
120.606223953
 30
0.000000000
 10
-168.916041304
 20
116.175943155
 30
0.000000000
 10
-175.301381023
 20
112.064060579
 30
0.000000000
 10
-188.435306009
 20
103.604131031
 30
0.000000000
 10
-202.390963297
 20
96.500988881
 30
0.000000000
 10
-216.738542272
 20
90.430282164
 30
0.000000000
  0
LINE
  5
A29
330
A02
100
AcDbEntity
  8
Shape2DView
100
AcDbLine
 10
-218.063545461
 20
93.561474677
 30
0.000000000
 11
-216.738542272
 21
90.430282164
 31
0.000000000
  0
SPLINE
  5
A2A
330
A02
100
AcDbEntity
  8
Shape2DView
100
AcDbSpline
210
0
220
0
230
1
 70
8
 71
3
 72
23
 73
19
 74
0
 40
0.000000000
 40
0.000000000
 40
0.000000000
 40
0.000000000
 40
46.778499812
 40
46.778499812
 40
46.778499812
 40
69.470419324
 40
69.470419324
 40
69.470419324
 40
91.585298651
 40
91.585298651
 40
91.585298651
 40
115.673893538
 40
115.673893538
 40
115.673893538
 40
138.291757673
 40
138.291757673
 40
138.291757673
 40
184.801796163
 40
184.801796163
 40
184.801796163
 40
184.801796163
 10
-92.650782817
 20
220.237286149
 30
0.000000000
 10
-98.592778341
 20
205.910705253
 30
0.000000000
 10
-105.535540691
 20
191.992841682
 30
0.000000000
 10
-113.801542401
 20
178.900404975
 30
0.000000000
 10
-117.809436112
 20
172.550877360
 30
0.000000000
 10
-122.126697685
 20
166.399768935
 30
0.000000000
 10
-126.765638989
 20
160.503185113
 30
0.000000000
 10
-131.285679355
 20
154.756189773
 30
0.000000000
 10
-136.111435347
 20
149.252018872
 30
0.000000000
 10
-141.228231477
 20
144.032666116
 30
0.000000000
 10
-146.800674133
 20
138.346485379
 30
0.000000000
 10
-152.718143631
 20
132.999685627
 30
0.000000000
 10
-158.929575300
 20
128.015924747
 30
0.000000000
 10
-164.761251534
 20
123.335342426
 30
0.000000000
 10
-170.850582481
 20
118.974169914
 30
0.000000000
 10
-177.142341408
 20
114.922533048
 30
0.000000000
 10
-190.083212211
 20
106.586803616
 30
0.000000000
 10
-203.863064276
 20
99.569845407
 30
0.000000000
 10
-218.063545461
 20
93.561474677
 30
0.000000000
  0
CIRCLE
  5
A2B
330
A02
100
AcDbEntity
  8
Shape2DView
100
AcDbCircle
 10
-228.500000000
 20
228.500000000
 30
0.000000000
 40
1.800000000
  0
SPLINE
  5
A2C
330
A02
100
AcDbEntity
  8
Shape2DView
100
AcDbSpline
210
0
220
0
230
1
 70
8
 71
3
 72
8
 73
4
 74
0
 40
0.000000000
 40
0.000000000
 40
0.000000000
 40
0.000000000
 40
41.834944856
 40
41.834944856
 40
41.834944856
 40
41.834944856
 10
-32.821339639
 20
208.426997352
 30
0.000000000
 10
-35.105533967
 20
194.635352970
 30
0.000000000
 10
-37.807885452
 20
180.894355004
 30
0.000000000
 10
-41.276723381
 20
167.318230984
 30
0.000000000
  0
SPLINE
  5
A2D
330
A02
100
AcDbEntity
  8
Shape2DView
100
AcDbSpline
210
0
220
0
230
1
 70
8
 71
3
 72
8
 73
4
 74
0
 40
0.000000000
 40
0.000000000
 40
0.000000000
 40
0.000000000
 40
20.880501159
 40
20.880501159
 40
20.880501159
 40
20.880501159
 10
-60.463180439
 20
205.658933705
 30
0.000000000
 10
-62.479370185
 20
198.965645643
 30
0.000000000
 10
-64.675057781
 20
192.321613865
 30
0.000000000
 10
-67.095644958
 20
185.754499954
 30
0.000000000
  0
ENDSEC
  0
SECTION
  2
OBJECTS
  0
DICTIONARY
  5
F000
330
0
100
AcDbDictionary
  3
ACAD_GROUP
350
F001
  0
DICTIONARY
  5
F001
330
F000
100
AcDbDictionary
  0
ENDSEC
  0
EOF