<?xml version="1.0" encoding="UTF-8" standalone="no"?>
<svg
   viewBox="0 0 2267.7165 1133.8583"
   width="600mm"
   height="300mm"
   version="1.1"
   id="svg78"
   sodipodi:docname="Plate-Shape2DView.svg"
   inkscape:version="1.2.2 (b0a8486541, 2022-12-01)"
   inkscape:export-filename="Plate-Shape2DView.pdf"
   inkscape:export-xdpi="96"
   inkscape:export-ydpi="96"
   xmlns:inkscape="http://www.inkscape.org/namespaces/inkscape"
   xmlns:sodipodi="http://sodipodi.sourceforge.net/DTD/sodipodi-0.dtd"
   xmlns="http://www.w3.org/2000/svg"
   xmlns:svg="http://www.w3.org/2000/svg">
  <sodipodi:namedview
     id="namedview80"
     pagecolor="#ffffff"
     bordercolor="#000000"
     borderopacity="0.25"
     inkscape:showpageshadow="2"
     inkscape:pageopacity="0.0"
     inkscape:pagecheckerboard="0"
     inkscape:deskcolor="#d1d1d1"
     showgrid="false"
     inkscape:zoom="0.70710678"
     inkscape:cx="286.37825"
     inkscape:cy="341.53258"
     inkscape:window-width="2494"
     inkscape:window-height="1371"
     inkscape:window-x="0"
     inkscape:window-y="0"
     inkscape:window-maximized="1"
     inkscape:current-layer="g76"
     inkscape:document-units="mm" />
  <desc
     id="desc2">Plate-Shape2DView.dxf - scale = 1.000000, origin = (0.000000, 0.000000), method = manual</desc>
  <defs
     id="defs16">
    <marker
       id="DistanceX"
       orient="auto"
       refX="0"
       refY="0"
       style="overflow:visible">
      <path
         d="M 3,-3 -3,3 M 0,-5 V 5"
         style="stroke:#000000;stroke-width:0.5"
         id="path4" />
    </marker>
    <pattern
       id="Hatch"
       patternUnits="userSpaceOnUse"
       width="8"
       height="8"
       x="0"
       y="0">
      <path
         d="M8 4 l-4,4"
         stroke="#000000"
         stroke-width="0.25"
         linecap="square"
         id="path7" />
      <path
         d="M6 2 l-4,4"
         stroke="#000000"
         stroke-width="0.25"
         linecap="square"
         id="path9" />
      <path
         d="M4 0 l-4,4"
         stroke="#000000"
         stroke-width="0.25"
         linecap="square"
         id="path11" />
    </pattern>
    <symbol
       id="*MODEL_SPACE" />
    <symbol
       id="*PAPER_SPACE" />
  </defs>
  <g
     inkscape:groupmode="layer"
     inkscape:label="Shape2DView"
     id="g76"
     transform="translate(882.52,-240)">
    <path
       style="vector-effect:non-scaling-stroke;fill:none;stroke:#00ffff;stroke-width:1;stroke-dasharray:none;-inkscape-stroke:hairline;stroke-opacity:1"
       d="m -20.7874,240 v 861.73 H -882.52"
       id="path24"
       sodipodi:nodetypes="ccc" />
    <path
       d="m -32.88189,1082.8346 a 6.80315,6.80315 0 0 0 -13.606299,0 6.80315,6.80315 0 0 0 13.606299,0 z"
       style="vector-effect:non-scaling-stroke;fill:none;stroke:#0000ff;stroke-width:1;stroke-dasharray:none;-inkscape-stroke:hairline;stroke-opacity:1"
       id="path30" />
    <path
       d="m -856.8189,1082.8346 a 6.80315,6.80315 0 0 0 -13.6063,0 6.80315,6.80315 0 0 0 13.6063,0 z"
       style="vector-effect:non-scaling-stroke;fill:none;stroke:#0000ff;stroke-width:1;stroke-dasharray:none;-inkscape-stroke:hairline;stroke-opacity:1"
       id="path40" />
    <path
       d="m -32.88189,258.89764 a 6.80315,6.80315 0 0 0 -13.606299,0 6.80315,6.80315 0 0 0 13.606299,0 z"
       style="vector-effect:non-scaling-stroke;fill:none;stroke:#0000ff;stroke-width:1;stroke-dasharray:none;-inkscape-stroke:hairline;stroke-opacity:1"
       id="path42" />
    <path
       id="path68"
       style="vector-effect:non-scaling-stroke;fill:none;stroke:#0000ff;stroke-width:1;stroke-dasharray:none;-inkscape-stroke:hairline;stroke-opacity:1"
       d="m -669.51436,688.1668 c 23.77988,-15.31327 46.79467,-31.79644 68.83565,-49.48683 23.47628,-18.83626 45.84152,-39.04464 66.90272,-60.53572 19.33907,-19.72668 37.57815,-40.52985 54.66176,-62.25078 17.53301,-22.2863 33.85022,-45.53458 48.99816,-69.5328 31.24159,-49.48322 57.48195,-102.08617 79.93997,-156.23378 l 11.86992,4.92321 c -22.68632,54.69698 -49.24248,107.95825 -80.94357,158.1703 -15.37034,24.35062 -31.9434,47.96565 -49.76446,70.61803 -17.36403,22.07761 -35.91411,43.23631 -55.58478,63.30111 -21.42216,21.8596 -44.17231,42.41503 -68.03676,61.56258 -22.40551,17.98302 -45.78708,34.72739 -69.92065,50.26836 -49.64003,31.97454 -102.38582,58.82106 -156.61274,81.76549 l -5.00795,-11.83422 c 53.67102,-22.70904 105.75235,-49.22983 154.66273,-80.73495 z"
       sodipodi:nodetypes="ccccccccccccccc" />
    <path
       d="m -856.8189,258.89764 a 6.80315,6.80315 0 0 0 -13.6063,0 6.80315,6.80315 0 0 0 13.6063,0 z"
       style="vector-effect:non-scaling-stroke;fill:none;stroke:#0000ff;stroke-width:1;stroke-dasharray:none;-inkscape-stroke:hairline;stroke-opacity:1"
       id="path70" />
    <path
       id="path1836"
       style="vector-effect:non-scaling-stroke;fill:none;stroke:#0000ff;stroke-width:1;stroke-dasharray:none;stroke-opacity:1;-inkscape-stroke:hairline"
       d="m -455.79569,1028.8083 c 22.85868,-5.0026 45.59952,-10.7076 68.07539,-17.4736 21.97127,-6.6212 43.69894,-14.25921 64.86796,-23.39422 21.67404,-9.35551 42.76912,-20.31235 62.61727,-33.35582 19.14522,-12.56328 37.08256,-27.10764 53.14858,-43.51845 16.15549,-16.46265 30.38645,-34.76399 42.64648,-54.20832 12.8183,-20.30347 23.5355,-41.80547 32.67841,-63.84898 8.96323,-21.61959 16.44032,-43.76903 22.91977,-66.14637 6.19191,-21.40641 11.470524,-43.03161 16.13099,-64.75914 l -12.5649,-2.69369 c -4.60855,21.48642 -9.81973,42.82629 -15.91002,63.88069 -6.37243,22.00945 -13.70604,43.71614 -22.44566,64.79511 -8.91472,21.49432 -19.31612,42.33801 -31.6749,61.91265 -11.82318,18.74927 -25.47586,36.29564 -40.95718,52.07277 -15.39734,15.7261 -32.58434,29.66965 -51.028,41.77412 -19.11806,12.56419 -39.54277,23.18518 -60.65412,32.29751 -20.61731,8.89746 -41.88907,16.38146 -63.48069,22.8877 -22.08734,6.64934 -44.51701,12.27904 -67.11503,17.22444 z"
       sodipodi:nodetypes="ccccccccccccccccccc" />
    <path
       id="path2582"
       style="display:inline;vector-effect:non-scaling-stroke;fill:none;stroke:#0000ff;stroke-width:1;stroke-dasharray:none;stroke-opacity:1;-inkscape-stroke:hairline"
       d="m -636.57841,1021.3238 c 33.52679,-5.659 66.94539,-12.1604 100.09949,-20.0097 34.62365,-8.21368 68.98509,-17.8838 102.59636,-29.99195 32.40808,-11.69074 64.14936,-25.69564 94.09903,-43.14458 15.76665,-9.186 31.01438,-19.32968 45.50083,-30.50183 13.98559,-10.77988 27.2539,-22.5198 39.62334,-35.14343 12.40815,-12.65463 23.9077,-26.19227 34.44291,-40.4181 10.16769,-13.72284 19.4418,-28.07933 27.89111,-42.87363 17.29741,-30.29134 31.14685,-62.33608 42.70606,-95.02427 11.99324,-33.96571 21.56152,-68.66111 29.68843,-103.60995 7.77224,-33.49208 14.20731,-67.24075 19.8084,-101.09413 l -12.67835,-2.09572 c -5.56543,33.63929 -11.95327,67.12875 -19.64732,100.28288 -8.04395,34.59564 -17.49839,68.85084 -29.287,102.23452 -11.36074,32.13021 -24.92448,63.47319 -41.74854,92.93293 -8.21833,14.38976 -17.21582,28.31379 -27.05843,41.59794 -10.19895,13.77139 -21.30954,26.84913 -33.29428,39.07224 -11.94769,12.19289 -24.76148,23.53197 -38.29299,33.96215 -14.01579,10.80909 -28.79512,20.64448 -44.12427,29.57567 -29.11509,16.96418 -60.14588,30.67337 -91.98797,42.15883 -33.02184,11.89672 -66.93562,21.44862 -101.19992,29.57619 -32.81049,7.76819 -65.96509,14.22054 -99.27379,19.84254 z"
       sodipodi:nodetypes="ccccccccccccccccccccccc" />
    <path
       id="path2585"
       style="vector-effect:non-scaling-stroke;fill:none;stroke:#0000ff;stroke-width:1;stroke-dasharray:none;stroke-opacity:1;-inkscape-stroke:hairline"
       d="m -124.04908,334.76405 c -6.85597,41.43774 -14.73199,82.74213 -24.2422,123.7234 -9.94408,42.76373 -21.64999,85.20728 -36.31565,126.7412 -14.13479,39.97199 -31.0647,79.13976 -52.19644,116.14548 -10.32229,18.07378 -21.64961,35.60822 -34.06591,52.3659 -12.86516,17.37195 -26.90547,33.90042 -42.05471,49.35063 -15.10201,15.41232 -31.30123,29.74569 -48.37898,42.90899 -17.68932,13.64224 -36.31126,26.03101 -55.57223,37.25288 -36.58691,21.31603 -75.38205,38.43523 -115.01007,52.73033 -41.09901,14.80565 -83.13269,26.63579 -125.49745,36.68576 -40.5667,9.60426 -81.46629,17.56131 -122.50355,24.48804 l -2.1369,-12.67147 c 40.81917,-6.88968 81.45476,-14.79764 121.67785,-24.32079 42.00541,-9.96389 83.59143,-21.6758 124.101,-36.27002 39.06204,-14.08982 77.14668,-30.91331 112.89903,-51.74457 18.82345,-10.96707 36.977,-23.04755 54.19566,-36.32673 16.62367,-12.81361 32.36836,-26.74612 47.04863,-41.72771 14.72583,-15.01869 28.37718,-31.08726 40.90608,-48.00476 12.09122,-16.319 23.14192,-33.42098 33.23323,-51.09022 20.65838,-36.17412 37.30261,-74.64012 51.23892,-114.05414 14.46103,-40.95189 26.0531,-82.95524 35.91421,-125.36576 9.43203,-40.64333 17.26082,-81.68851 24.08081,-122.9123 z"
       sodipodi:nodetypes="ccccccccccccccccccccccc" />
    <path
       id="path2593"
       style="vector-effect:non-scaling-stroke;fill:none;stroke:#0000ff;stroke-width:1;stroke-dasharray:none;stroke-opacity:1;-inkscape-stroke:hairline"
       d="m -778.11454,835.65281 c 30.06233,-11.28361 59.72771,-23.71051 88.75324,-37.55808 26.92058,-12.84374 53.28902,-26.91533 78.83084,-42.40782 26.14268,-15.85339 51.41374,-33.20398 75.47305,-52.13314 23.34172,-18.35623 45.53363,-38.19942 66.32623,-59.41781 20.85211,-21.26776 40.29213,-43.91121 58.23722,-67.66122 18.59486,-24.59941 35.58858,-50.37596 51.09143,-76.98339 15.20837,-26.09713 28.99109,-52.98891 41.55823,-80.40422 12.40906,-27.07165 23.63797,-54.65403 33.90627,-82.56419 l -12.0602,-4.4367 c -20.46108,55.60555 -44.73948,109.84722 -74.50702,160.93502 -15.26578,26.20041 -31.9764,51.54343 -50.24049,75.70535 -17.62636,23.32788 -36.70305,45.5466 -57.16244,66.41406 -20.4013,20.81881 -42.1737,40.28789 -65.09418,58.31308 -23.62493,18.58732 -48.46104,35.64186 -74.19225,51.24582 -25.13939,15.24843 -51.12782,29.11962 -77.70024,41.7972 -28.64977,13.66841 -57.97598,25.95537 -87.73506,37.12507 z"
       sodipodi:nodetypes="cccccccccccccccccc" />
    <path
       id="path2595"
       style="vector-effect:non-scaling-stroke;fill:none;stroke:#0000ff;stroke-width:1;stroke-dasharray:none;stroke-opacity:1;-inkscape-stroke:hairline"
       d="m -228.52226,345.22608 c -9.69904,32.19511 -20.49408,64.09373 -32.74688,95.46635 -11.96027,30.61555 -25.31613,60.73295 -40.43817,89.99283 -15.87367,30.71896 -33.71562,60.48842 -53.81314,88.71831 -19.07029,26.80577 -40.18475,52.20067 -63.24104,75.71153 -22.97187,23.44754 -47.85938,45.00628 -74.21962,64.5246 -27.60057,20.45222 -56.79027,38.67578 -86.982,54.91302 -30.78944,16.56212 -62.6114,31.08105 -95.01578,43.99578 -31.0477,12.37096 -62.63503,23.27803 -94.52785,33.08 l -3.77448,-12.28356 c 31.60899,-9.71461 62.87151,-20.51179 93.54505,-32.73382 32.01435,-12.7591 63.39092,-27.07924 93.68523,-43.37524 29.70725,-15.97678 58.3638,-33.87273 85.42041,-53.92182 25.84135,-19.13463 50.20299,-40.24009 72.69204,-63.19425 22.57108,-23.01659 43.24652,-47.8801 61.94881,-74.16793 19.70863,-27.68363 37.23918,-56.92452 52.86661,-87.16687 14.88712,-28.805 28.06511,-58.51333 39.88435,-88.76824 12.10847,-31.00269 22.79737,-62.5811 32.41207,-94.49671 z"
       sodipodi:nodetypes="ccccccccccccccccccc" />
    <path
       id="path2597"
       style="vector-effect:non-scaling-stroke;fill:none;stroke:#0000ff;stroke-width:1;stroke-dasharray:none;stroke-opacity:1;-inkscape-stroke:hairline"
       d="m -676.61377,913.13345 c 37.53675,-11.3112 74.5474,-24.33024 110.45956,-39.82805 36.77189,-15.87202 72.3939,-34.39105 105.77458,-56.32829 32.20214,-21.1335 62.24555,-45.50434 89.15928,-72.99337 27.0612,-27.57771 50.92,-58.24525 71.55824,-90.97434 21.57423,-34.17105 39.70558,-70.51433 55.22985,-107.94461 15.21931,-36.70772 27.97402,-74.46687 39.05057,-112.72301 10.58588,-36.59613 19.63658,-73.66232 27.63784,-110.96615 l 12.56489,2.69369 c -8.05316,37.54494 -17.17131,74.89645 -27.85881,111.8446 -11.18356,38.62403 -24.08175,76.82593 -39.52467,114.07427 -15.75246,37.97947 -34.19961,74.98106 -56.23335,109.88093 -10.68304,16.92474 -22.20449,33.34203 -34.59553,49.09229 -12.07322,15.3506 -24.97286,30.06438 -38.65203,44.01762 -13.64693,13.92494 -28.06807,27.09038 -43.14943,39.43587 -15.40929,12.61766 -31.50455,24.37927 -48.13042,35.30182 -34.11077,22.41653 -70.40314,41.2714 -107.73772,57.38661 -36.46388,15.73535 -73.93043,28.90842 -111.84684,40.33452 -38.78713,11.67643 -78.06153,21.53018 -117.55851,30.17404 l -2.74564,-12.55365 c 39.23632,-8.58655 78.19954,-18.36505 116.59814,-29.92479 z"
       sodipodi:nodetypes="ccccccccccccccccccccc" />
  </g>
</svg>
