999
"DXF R12 Output" (www.mydxf.blogspot.com)
 0 
SECTION
 2 
HEADER
 9 
$ACADVER
 1 
AC1009
 9 
$EXTMIN
 10 
 0 
 20 
 0 
 9 
$EXTMAX
 10 
 8.5 
 20 
 11 
 0 
ENDSEC
 0 
SECTION
 2 
ENTITIES
0
LINE
8
Layer 1
10
0.763325
20
297.000000
11
-0.381001
21
296.339000
0
LINE
8
Layer 1
10
-0.381001
20
296.339000
11
-0.381001
21
297.661000
0
LINE
8
Layer 1
10
-0.381001
20
297.661000
11
0.763325
21
297.000000
0
LINE
8
Layer 1
10
0.793749
20
297.794000
11
-0.793749
21
296.206000
0
LINE
8
Layer 1
10
0.000000
20
298.323000
11
0.000000
21
295.677000
0
LINE
8
Layer 1
10
2.116660
20
295.942000
11
1.058330
21
294.883670
0
LINE
8
Layer 1
10
1.587500
20
296.471000
11
0.529170
21
295.412670
0
LINE
8
Layer 1
10
1.058330
20
297.000000
11
0.000000
21
295.941670
0
LINE
8
SubtractivePipe005
10
0.000000
20
0.000291
11
0.000000
21
0.000291
0
LINE
8
SubtractivePipe005
10
0.000000
20
206.000000
11
0.000000
21
206.000000
0
LINE
8
SubtractivePipe005
10
206.000000
20
0.000291
11
206.000000
21
0.000291
0
LINE
8
SubtractivePipe005
10
0.000000
20
0.000291
11
0.000000
21
0.000291
0
LINE
8
SubtractivePipe005
10
-6.199900
20
-7.999610
11
-6.441054
21
-7.099610
0
LINE
8
SubtractivePipe005
10
-6.441054
20
-7.099610
11
-7.099900
21
-6.440764
0
LINE
8
SubtractivePipe005
10
-7.099900
20
-6.440764
11
-7.999900
21
-6.199610
0
LINE
8
SubtractivePipe005
10
-7.999900
20
-6.199610
11
-8.899900
21
-6.440764
0
LINE
8
SubtractivePipe005
10
-8.899900
20
-6.440764
11
-9.558746
21
-7.099610
0
LINE
8
SubtractivePipe005
10
-9.558746
20
-7.099610
11
-9.799900
21
-7.999610
0
LINE
8
SubtractivePipe005
10
-9.799900
20
-7.999610
11
-9.558746
21
-8.899610
0
LINE
8
SubtractivePipe005
10
-9.558746
20
-8.899610
11
-8.899900
21
-9.558456
0
LINE
8
SubtractivePipe005
10
-8.899900
20
-9.558456
11
-7.999900
21
-9.799610
0
LINE
8
SubtractivePipe005
10
-7.999900
20
-9.799610
11
-7.099900
21
-9.558456
0
LINE
8
SubtractivePipe005
10
-7.099900
20
-9.558456
11
-6.441054
21
-8.899610
0
LINE
8
SubtractivePipe005
10
-6.441054
20
-8.899610
11
-6.199900
21
-7.999610
0
LINE
8
SubtractivePipe005
10
-6.199900
20
-7.999610
11
-6.199900
21
-7.999610
0
LINE
8
SubtractivePipe005
10
215.800000
20
-7.999610
11
215.657328
21
-7.300332
0
LINE
8
SubtractivePipe005
10
215.657328
20
-7.300332
11
215.271296
21
-6.729561
0
LINE
8
SubtractivePipe005
10
215.271296
20
-6.729561
11
214.699618
21
-6.344876
0
LINE
8
SubtractivePipe005
10
214.699618
20
-6.344876
11
214.000005
21
-6.203853
0
LINE
8
SubtractivePipe005
10
214.000005
20
-6.203853
11
213.300392
21
-6.344876
0
LINE
8
SubtractivePipe005
10
213.300392
20
-6.344876
11
212.728714
21
-6.729561
0
LINE
8
SubtractivePipe005
10
212.728714
20
-6.729561
11
212.342682
21
-7.300332
0
LINE
8
SubtractivePipe005
10
212.342682
20
-7.300332
11
212.200010
21
-7.999610
0
LINE
8
SubtractivePipe005
10
212.200010
20
-7.999610
11
212.342682
21
-8.698888
0
LINE
8
SubtractivePipe005
10
212.342682
20
-8.698888
11
212.728714
21
-9.269659
0
LINE
8
SubtractivePipe005
10
212.728714
20
-9.269659
11
213.300392
21
-9.654344
0
LINE
8
SubtractivePipe005
10
213.300392
20
-9.654344
11
214.000005
21
-9.795367
0
LINE
8
SubtractivePipe005
10
214.000005
20
-9.795367
11
214.699618
21
-9.654344
0
LINE
8
SubtractivePipe005
10
214.699618
20
-9.654344
11
215.271296
21
-9.269659
0
LINE
8
SubtractivePipe005
10
215.271296
20
-9.269659
11
215.657328
21
-8.698888
0
LINE
8
SubtractivePipe005
10
215.657328
20
-8.698888
11
215.800000
21
-7.999610
0
LINE
8
SubtractivePipe005
10
215.800000
20
-7.999610
11
215.800000
21
-7.999610
0
LINE
8
SubtractivePipe005
10
-6.199900
20
214.000000
11
-6.441054
21
214.900000
0
LINE
8
SubtractivePipe005
10
-6.441054
20
214.900000
11
-7.099900
21
215.558846
0
LINE
8
SubtractivePipe005
10
-7.099900
20
215.558846
11
-7.999900
21
215.800000
0
LINE
8
SubtractivePipe005
10
-7.999900
20
215.800000
11
-8.899900
21
215.558846
0
LINE
8
SubtractivePipe005
10
-8.899900
20
215.558846
11
-9.558746
21
214.900000
0
LINE
8
SubtractivePipe005
10
-9.558746
20
214.900000
11
-9.799900
21
214.000000
0
LINE
8
SubtractivePipe005
10
-9.799900
20
214.000000
11
-9.558746
21
213.100000
0
LINE
8
SubtractivePipe005
10
-9.558746
20
213.100000
11
-8.899900
21
212.441154
0
LINE
8
SubtractivePipe005
10
-8.899900
20
212.441154
11
-7.999900
21
212.200000
0
LINE
8
SubtractivePipe005
10
-7.999900
20
212.200000
11
-7.099900
21
212.441154
0
LINE
8
SubtractivePipe005
10
-7.099900
20
212.441154
11
-6.441054
21
213.100000
0
LINE
8
SubtractivePipe005
10
-6.441054
20
213.100000
11
-6.199900
21
214.000000
0
LINE
8
SubtractivePipe005
10
-6.199900
20
214.000000
11
-6.199900
21
214.000000
0
LINE
8
SubtractivePipe005
10
215.800000
20
214.000000
11
215.657328
21
214.699278
0
LINE
8
SubtractivePipe005
10
215.657328
20
214.699278
11
215.271296
21
215.270049
0
LINE
8
SubtractivePipe005
10
215.271296
20
215.270049
11
214.699618
21
215.654734
0
LINE
8
SubtractivePipe005
10
214.699618
20
215.654734
11
214.000005
21
215.795757
0
LINE
8
SubtractivePipe005
10
214.000005
20
215.795757
11
213.300392
21
215.654734
0
LINE
8
SubtractivePipe005
10
213.300392
20
215.654734
11
212.728714
21
215.270049
0
LINE
8
SubtractivePipe005
10
212.728714
20
215.270049
11
212.342682
21
214.699278
0
LINE
8
SubtractivePipe005
10
212.342682
20
214.699278
11
212.200010
21
214.000000
0
LINE
8
SubtractivePipe005
10
212.200010
20
214.000000
11
212.342682
21
213.300722
0
LINE
8
SubtractivePipe005
10
212.342682
20
213.300722
11
212.728714
21
212.729951
0
LINE
8
SubtractivePipe005
10
212.728714
20
212.729951
11
213.300392
21
212.345266
0
LINE
8
SubtractivePipe005
10
213.300392
20
212.345266
11
214.000005
21
212.204243
0
LINE
8
SubtractivePipe005
10
214.000005
20
212.204243
11
214.699618
21
212.345266
0
LINE
8
SubtractivePipe005
10
214.699618
20
212.345266
11
215.271296
21
212.729951
0
LINE
8
SubtractivePipe005
10
215.271296
20
212.729951
11
215.657328
21
213.300722
0
LINE
8
SubtractivePipe005
10
215.657328
20
213.300722
11
215.800000
21
214.000000
0
LINE
8
SubtractivePipe005
10
215.800000
20
214.000000
11
215.800000
21
214.000000
0
LINE
8
SubtractivePipe005
10
206.000000
20
206.000000
11
206.000000
21
206.000000
0
LINE
8
SubtractivePipe005
10
0.000000
20
206.000000
11
0.000000
21
206.000000
0
LINE
8
SubtractivePipe005
10
206.000000
20
0.000291
11
206.000000
21
0.000291
0
LINE
8
SubtractivePipe005
10
206.000000
20
206.000000
11
206.000000
21
206.000000
0
LINE
8
SubtractivePipe005
10
6.799990
20
5.000910
11
6.799990
21
5.000910
0
LINE
8
SubtractivePipe005
10
6.799990
20
5.000910
11
6.799990
21
5.000910
0
LINE
8
SubtractivePipe005
10
202.800000
20
5.000910
11
202.800000
21
5.000910
0
LINE
8
SubtractivePipe005
10
202.800000
20
5.000910
11
202.800000
21
5.000910
0
LINE
8
SubtractivePipe005
10
6.799990
20
201.000000
11
6.799990
21
201.000000
0
LINE
8
SubtractivePipe005
10
6.799990
20
201.000000
11
6.799990
21
201.000000
0
LINE
8
SubtractivePipe005
10
202.800000
20
201.000000
11
202.800000
21
201.000000
0
LINE
8
SubtractivePipe005
10
202.800000
20
201.000000
11
202.800000
21
201.000000
0
LINE
8
Layer 1
10
-15.999900
20
-15.999600
11
148.492000
21
148.493000
0
LINE
8
Layer 1
10
46.825000
20
-15.999600
11
180.312000
21
116.673000
0
LINE
8
Layer 1
10
111.280000
20
-15.999600
11
212.132000
21
84.852700
0
LINE
8
Layer 1
10
174.920000
20
-15.999600
11
217.982000
21
27.063100
0
LINE
8
Layer 1
10
-15.999900
20
47.640300
11
116.672000
21
180.313000
0
LINE
8
Layer 1
10
-15.999900
20
111.280000
11
84.922200
21
212.202000
0
LINE
8
Layer 1
10
-15.999900
20
175.317000
11
31.138100
21
222.000000
0
LINE
8
Layer 1
10
-16.530200
20
58.576600
11
56.360800
21
-13.935400
0
LINE
8
Layer 1
10
-15.999900
20
122.065000
11
119.974000
21
-13.908300
0
LINE
8
Layer 1
10
-16.527600
20
185.856000
11
183.618000
21
-13.912800
0
LINE
8
Layer 1
10
11.345000
20
222.000000
11
218.301000
21
15.044000
 0 
ENDSEC
 0 
EOF