<?xml version="1.0" encoding="UTF-8" standalone="no"?>
<svg
   width="210.12mm"
   height="210.12mm"
   viewBox="0 0 210.12 210.12"
   version="1.1"
   id="svg49"
   sodipodi:docname="Plate-Laser.svg"
   inkscape:version="1.2.2 (b0a8486541, 2022-12-01)"
   xmlns:inkscape="http://www.inkscape.org/namespaces/inkscape"
   xmlns:sodipodi="http://sodipodi.sourceforge.net/DTD/sodipodi-0.dtd"
   xmlns="http://www.w3.org/2000/svg"
   xmlns:svg="http://www.w3.org/2000/svg">
  <defs
     id="defs53" />
  <sodipodi:namedview
     id="namedview51"
     pagecolor="#ffffff"
     bordercolor="#000000"
     borderopacity="0.25"
     inkscape:showpageshadow="2"
     inkscape:pageopacity="0.0"
     inkscape:pagecheckerboard="0"
     inkscape:deskcolor="#d1d1d1"
     inkscape:document-units="mm"
     showgrid="false"
     inkscape:zoom="1.3259388"
     inkscape:cx="397.83134"
     inkscape:cy="397.83134"
     inkscape:window-width="2494"
     inkscape:window-height="1371"
     inkscape:window-x="0"
     inkscape:window-y="0"
     inkscape:window-maximized="1"
     inkscape:current-layer="svg49" />
  <g
     id="Body"
     transform="translate(2.060000,208.060000) scale(1,-1)"
     style="vector-effect:non-scaling-stroke;-inkscape-stroke:hairline;stroke-width:0.26458333;stroke-dasharray:none">
    <path
       id="Body_f0000"
       d="M 0.0 206.0 L 0.0 0.0 L 0.0 0.0 L 0.0 206.0 L 0.0 206.0 Z "
       stroke="#191919"
       stroke-width="0.7 px"
       style="stroke-width:0.26458333;stroke-miterlimit:4;stroke-dasharray:none;stroke-linecap:square;fill:#cccce6;fill-opacity:1;fill-rule:evenodd;vector-effect:non-scaling-stroke;-inkscape-stroke:hairline" />
    <path
       id="Body_f0001"
       d="M 0.0 0.0 L 0.0 0.0 L 206.0 0.0 L 206.0 0.0 L 0.0 0.0 Z "
       stroke="#191919"
       stroke-width="0.7 px"
       style="stroke-width:0.26458333;stroke-miterlimit:4;stroke-dasharray:none;stroke-linecap:square;fill:#cccce6;fill-opacity:1;fill-rule:evenodd;vector-effect:non-scaling-stroke;-inkscape-stroke:hairline" />
    <circle
       cx="5.0"
       cy="5.0"
       r="1.7999999999999998"
       stroke="#191919"
       stroke-width="0.7 px"
       style="stroke-width:0.26458333;stroke-miterlimit:4;stroke-dasharray:none;stroke-linecap:square;fill:#cccce6;vector-effect:non-scaling-stroke;-inkscape-stroke:hairline"
       id="circle4" />
    <path
       id="Body_f0003"
       d="M 206.0 206.0 L 0.0 206.0 L 0.0 206.0 L 206.0 206.0 L 206.0 206.0 Z "
       stroke="#191919"
       stroke-width="0.7 px"
       style="stroke-width:0.26458333;stroke-miterlimit:4;stroke-dasharray:none;stroke-linecap:square;fill:#cccce6;fill-opacity:1;fill-rule:evenodd;vector-effect:non-scaling-stroke;-inkscape-stroke:hairline" />
    <circle
       cx="5.0"
       cy="5.0"
       r="1.7999999999999998"
       stroke="#191919"
       stroke-width="0.7 px"
       style="stroke-width:0.26458333;stroke-miterlimit:4;stroke-dasharray:none;stroke-linecap:square;fill:#cccce6;vector-effect:non-scaling-stroke;-inkscape-stroke:hairline"
       id="circle7" />
    <path
       id="Body_f0005"
       d="M 206.0 0.0 L 206.0 0.0 L 206.0 206.0 L 206.0 206.0 L 206.0 0.0 Z "
       stroke="#191919"
       stroke-width="0.7 px"
       style="stroke-width:0.26458333;stroke-miterlimit:4;stroke-dasharray:none;stroke-linecap:square;fill:#cccce6;fill-opacity:1;fill-rule:evenodd;vector-effect:non-scaling-stroke;-inkscape-stroke:hairline" />
    <circle
       cx="5.0"
       cy="5.0"
       r="1.7999999999999998"
       stroke="#191919"
       stroke-width="0.7 px"
       style="stroke-width:0.26458333;stroke-miterlimit:4;stroke-dasharray:none;stroke-linecap:square;fill:#cccce6;vector-effect:non-scaling-stroke;-inkscape-stroke:hairline"
       id="circle10" />
    <path
       id="Body_f0007"
       d="M 85.42255920161597 10.288064050024085 C 75.61615070183723 11.509285328067412 65.93121096397908 13.525540250563623 56.367739988041365 16.33682881751269 C 46.9298003714525 19.2735917730266 37.52286761644437 23.728866174543214 30.396272842474062 31.05459803569238 C 23.148491198843484 38.407643416390755 18.84444193115136 47.974978945530616 15.978937285947978 57.53245020208556 C 13.295844310484448 67.00778260899068 11.35948349856987 76.59273999929448 10.169854850204246 86.28732237299708 L 10.169854850204244 86.28732237299707 C 11.359483499776825 76.59273999901289 13.295844311691415 67.00778260870915 15.978937285948 57.53245020208577 C 18.84444193115131 47.97497894553015 23.148491198843566 38.40764341639123 30.396272842474083 31.054598035692223 C 37.52286761644445 23.72886617454331 46.929800371452345 19.27359177302671 56.367739988041535 16.336828817512536 C 65.9312109609112 13.525540249431208 75.61615069876936 11.509285326935055 85.422559201616 10.288064050024087 L 85.42255920161598 10.288064050024085 Z "
       stroke="#191919"
       stroke-width="0.7 px"
       style="stroke-width:0.26458333;stroke-miterlimit:4;stroke-dasharray:none;stroke-linecap:square;fill:#cccce6;fill-opacity:1;fill-rule:evenodd;vector-effect:non-scaling-stroke;-inkscape-stroke:hairline" />
    <path
       id="Body_f0008"
       d="M 13.24184942582576 86.70307389416324 L 10.169854850204244 86.28732237299708 L 10.169854850204244 86.28732237299708 L 13.241849425825757 86.70307389416324 L 13.24184942582576 86.70307389416324 Z "
       stroke="#191919"
       stroke-width="0.7 px"
       style="stroke-width:0.26458333;stroke-miterlimit:4;stroke-dasharray:none;stroke-linecap:square;fill:#cccce6;fill-opacity:1;fill-rule:evenodd;vector-effect:non-scaling-stroke;-inkscape-stroke:hairline" />
    <path
       id="Body_f0009"
       d="M 85.84655386288887 13.35893176570513 L 85.84655386288887 13.35893176570513 L 85.422559201616 10.288064050024085 L 85.42255920161598 10.288064050024085 L 85.84655386288887 13.35893176570513 Z "
       stroke="#191919"
       stroke-width="0.7 px"
       style="stroke-width:0.26458333;stroke-miterlimit:4;stroke-dasharray:none;stroke-linecap:square;fill:#cccce6;fill-opacity:1;fill-rule:evenodd;vector-effect:non-scaling-stroke;-inkscape-stroke:hairline" />
    <path
       id="Body_f0010"
       d="M 85.84655386288887 13.35893176570513 C 76.11818612019844 14.576639946649827 66.60101807851646 16.555291038787274 57.295049737842845 19.294885042117457 C 48.11066938645596 22.153777054907614 39.23817576299925 26.40472750824756 32.61011276162391 33.22460098785103 C 25.861149194912866 40.0628874384112 21.738753083605 49.11335526646692 18.94722136690814 58.4264801874434 C 16.329473677838212 67.65850950020928 14.427683030810748 77.0840407357825 13.24184942582576 86.70307389416324 L 13.24184942582576 86.70307389416324 C 14.427683030810778 77.0840407357824 16.32947367783823 67.65850950020922 18.94722136690806 58.42648018744357 C 21.738753083605165 49.113355266466655 25.861149194912688 40.062887438411394 32.610112761624066 33.22460098785099 C 39.238175762999106 26.404727508247554 48.11066938645588 22.153777054907607 57.29504973784304 19.294885042117457 C 66.60101807851642 16.55529103878727 76.11818612019836 14.576639946649829 85.84655386288887 13.35893176570513 L 85.84655386288887 13.35893176570513 Z "
       stroke="#191919"
       stroke-width="0.7 px"
       style="stroke-width:0.26458333;stroke-miterlimit:4;stroke-dasharray:none;stroke-linecap:square;fill:#cccce6;fill-opacity:1;fill-rule:evenodd;vector-effect:non-scaling-stroke;-inkscape-stroke:hairline" />
    <path
       id="Body_f0011"
       d="M 120.89355392508052 15.185517238151503 C 107.10570897753595 17.11677242903068 93.3151861426972 19.55056931204668 79.90807450885359 23.71639838314094 C 66.61332614546956 27.85348078400785 53.42060023128199 34.11187339150018 43.445322559137615 44.36725604270809 C 33.29872006730715 54.659422480660695 27.249496821417747 68.08263133417438 23.21238158375059 81.5483310248923 C 19.242321010027695 94.84092821631266 16.889308104723384 108.4774000856589 15.01857756490413 122.114806520074 L 15.01857756490413 122.11480652007401 C 16.88930810397305 108.4774000772108 19.24232101257168 94.84092823218418 23.21238158375092 81.54833102489422 C 27.249496821417242 68.08263133417185 33.29872006730755 54.65942248066196 43.445322559137395 44.367256042708085 C 53.42060023128205 34.11187339150013 66.61332614546986 27.853480784007942 79.90807450885325 23.716398383140845 C 93.31518615239256 19.55056931361636 107.1057089619596 17.116772426380457 120.89355392508052 15.185517238151505 L 120.89355392508052 15.185517238151503 Z "
       stroke="#191919"
       stroke-width="0.7 px"
       style="stroke-width:0.26458333;stroke-miterlimit:4;stroke-dasharray:none;stroke-linecap:square;fill:#cccce6;fill-opacity:1;fill-rule:evenodd;vector-effect:non-scaling-stroke;-inkscape-stroke:hairline" />
    <path
       id="Body_f0012"
       d="M 18.090572140525655 122.53055804124014 L 15.01857756490413 122.114806520074 L 15.01857756490413 122.114806520074 L 18.090572140525655 122.53055804124014 L 18.090572140525655 122.53055804124014 Z "
       stroke="#191919"
       stroke-width="0.7 px"
       style="stroke-width:0.26458333;stroke-miterlimit:4;stroke-dasharray:none;stroke-linecap:square;fill:#cccce6;fill-opacity:1;fill-rule:evenodd;vector-effect:non-scaling-stroke;-inkscape-stroke:hairline" />
    <path
       id="Body_f0013"
       d="M 121.31754858635334 18.256384953832548 L 121.31754858635334 18.256384953832548 L 120.89355392508052 15.185517238151503 L 120.89355392508052 15.185517238151503 L 121.31754858635334 18.256384953832548 Z "
       stroke="#191919"
       stroke-width="0.7 px"
       style="stroke-width:0.26458333;stroke-miterlimit:4;stroke-dasharray:none;stroke-linecap:square;fill:#cccce6;fill-opacity:1;fill-rule:evenodd;vector-effect:non-scaling-stroke;-inkscape-stroke:hairline" />
    <path
       id="Body_f0014"
       d="M 121.31754858635334 18.256384953832548 C 107.62641849750649 20.172105466479415 93.96631915628252 22.592341682466845 80.83538425865524 26.67445460774584 C 67.7941951604729 30.733666065888684 55.13590837783676 36.78773472520456 45.65916247828754 46.53725899486668 C 36.01137806391124 56.314666502765135 30.143807973429492 69.22100765503939 26.180665664711128 82.44236101025254 C 22.28663270215572 95.47431192364374 19.946825314400634 108.98604400015219 18.090572140525655 122.53055804124014 L 18.090572140525655 122.53055804124014 C 19.946825314400623 108.98604400015203 22.286632702155735 95.47431192364384 26.18066566471113 82.44236101025253 C 30.14380797342949 69.22100765503946 36.011378063911245 56.31466650276518 45.65916247828754 46.53725899486669 C 55.13590837783681 36.78773472520456 67.79419516047284 30.73366606588867 80.83538425865521 26.674454607745833 C 93.96631915628247 22.59234168246684 107.6264184975065 20.17210546647943 121.31754858635335 18.256384953832548 L 121.31754858635334 18.256384953832548 Z "
       stroke="#191919"
       stroke-width="0.7 px"
       style="stroke-width:0.26458333;stroke-miterlimit:4;stroke-dasharray:none;stroke-linecap:square;fill:#cccce6;fill-opacity:1;fill-rule:evenodd;vector-effect:non-scaling-stroke;-inkscape-stroke:hairline" />
    <circle
       cx="200.9999999999395"
       cy="5.000000000060494"
       r="1.7999999999999998"
       stroke="#191919"
       stroke-width="0.7 px"
       style="stroke-width:0.26458333;stroke-miterlimit:4;stroke-dasharray:none;stroke-linecap:square;fill:#cccce6;vector-effect:non-scaling-stroke;-inkscape-stroke:hairline"
       id="circle20" />
    <circle
       cx="5.000000000052111"
       cy="200.9999999999479"
       r="1.7999999999999998"
       stroke="#191919"
       stroke-width="0.7 px"
       style="stroke-width:0.26458333;stroke-miterlimit:4;stroke-dasharray:none;stroke-linecap:square;fill:#cccce6;vector-effect:non-scaling-stroke;-inkscape-stroke:hairline"
       id="circle22" />
    <path
       id="Body_f0017"
       d="M 189.10753643996318 19.856496087536012 C 166.40689148221443 22.472872458745965 143.6856565776526 25.74978901256837 121.49671200615767 31.72733168997722 C 99.85297893881238 37.60461195807968 78.00265422265069 46.657757929459656 61.89946564452357 63.19419754746433 C 45.53171249990096 79.82610156848394 36.809563041319116 102.04527224452579 31.065485820006508 123.9742773950514 C 25.359816732213314 146.00559093531146 22.181785800484082 168.51644115716493 19.643214366838922 191.01325388248415 L 19.643214366838922 191.01325388248415 C 22.181785798975024 168.51644116318192 25.35981673321276 146.0055909316189 31.065485820006316 123.97427739505181 C 36.809563041830664 102.04527224402639 45.53171249952338 79.82610156892072 61.89946564452356 63.19419754746442 C 78.00265422243127 46.65775793029289 99.85297893966478 37.604611956645925 121.49671200615722 31.727331689977234 C 143.68565658791704 25.7497890104961 166.40689147148524 22.472872461101925 189.10753643996318 19.856496087536023 L 189.10753643996318 19.856496087536012 Z "
       stroke="#191919"
       stroke-width="0.7 px"
       style="stroke-width:0.26458333;stroke-miterlimit:4;stroke-dasharray:none;stroke-linecap:square;fill:#cccce6;fill-opacity:1;fill-rule:evenodd;vector-effect:non-scaling-stroke;-inkscape-stroke:hairline" />
    <path
       id="Body_f0018"
       d="M 19.643214366838922 191.01325388248415 L 19.643214366838922 191.01325388248415 L 22.724357731049913 191.3546562392109 L 22.724357731049913 191.3546562392109 L 19.643214366838922 191.01325388248415 Z "
       stroke="#191919"
       stroke-width="0.7 px"
       style="stroke-width:0.26458333;stroke-miterlimit:4;stroke-dasharray:none;stroke-linecap:square;fill:#cccce6;fill-opacity:1;fill-rule:evenodd;vector-effect:non-scaling-stroke;-inkscape-stroke:hairline" />
    <path
       id="Body_f0019"
       d="M 189.45574940703852 22.93687718888705 L 189.10753643996318 19.856496087536012 L 189.10753643996318 19.856496087536012 L 189.45574940703852 22.93687718888705 L 189.45574940703852 22.93687718888705 Z "
       stroke="#191919"
       stroke-width="0.7 px"
       style="stroke-width:0.26458333;stroke-miterlimit:4;stroke-dasharray:none;stroke-linecap:square;fill:#cccce6;fill-opacity:1;fill-rule:evenodd;vector-effect:non-scaling-stroke;-inkscape-stroke:hairline" />
    <path
       id="Body_f0020"
       d="M 189.45574940703852 22.93687718888705 C 166.84080631150798 25.54130948903139 144.23055045879272 28.811368800660745 122.31183176422097 34.71824790077525 C 100.90364836942578 40.52929407257396 79.63197660898561 49.41188471847585 64.11330556367375 65.36420049962335 C 48.320788274436616 81.39280465827403 39.744336027619205 103.05761522799858 34.06438314194747 124.75952566945669 C 28.422857777170197 146.5359984806676 25.25183173833557 168.94019834613732 22.724357731049913 191.3546562392109 L 22.724357731049917 191.35465623921095 C 25.251831738335444 168.94019834613724 28.422857777170382 146.53599848066764 34.06438314194733 124.75952566945683 C 39.74433602761972 103.05761522799861 48.32078827443584 81.39280465827379 64.11330556367429 65.36420049962355 C 79.63197660898486 49.41188471847566 100.90364836942601 40.52929407257384 122.31183176422121 34.718247900775445 C 144.23055045879244 28.811368800660407 166.8408063115083 25.541309489031548 189.4557494070385 22.93687718888704 L 189.45574940703852 22.93687718888705 Z "
       stroke="#191919"
       stroke-width="0.7 px"
       style="stroke-width:0.26458333;stroke-miterlimit:4;stroke-dasharray:none;stroke-linecap:square;fill:#cccce6;fill-opacity:1;fill-rule:evenodd;vector-effect:non-scaling-stroke;-inkscape-stroke:hairline" />
    <path
       id="Body_f0021"
       d="M 189.54182151620228 30.479029346543964 C 169.16956108112305 33.94844226280609 148.84335967839112 38.33232895593737 129.2708200983243 45.34589952786578 C 109.71655322450006 52.34118777880145 90.76595381160622 62.523463359236125 76.05982767396577 77.64061786516564 C 61.44884428165472 92.45468145509662 51.667807524354316 111.250145210911 44.87689144248835 130.58454226472364 C 37.92771212545466 150.37132603797235 33.592898975606715 170.89109680830566 30.15972062698592 191.4543056539632 L 30.159720626985926 191.45430565396316 C 33.59289897103113 170.89109683460117 37.927712128315285 150.37132602168123 44.8768914424883 130.58454226472296 C 51.667807524354444 111.25014521091175 61.448844281654424 92.45468145509675 76.05982767396591 77.64061786516521 C 90.76595381160547 62.52346335923668 109.71655322450124 52.34118777880133 129.27082009832347 45.3458995278657 C 148.8433596620912 38.33232895886813 169.1695611074577 33.94844225810599 189.54182151620228 30.479029346543975 L 189.54182151620228 30.479029346543964 Z "
       stroke="#191919"
       stroke-width="0.7 px"
       style="stroke-width:0.26458333;stroke-miterlimit:4;stroke-dasharray:none;stroke-linecap:square;fill:#cccce6;fill-opacity:1;fill-rule:evenodd;vector-effect:non-scaling-stroke;-inkscape-stroke:hairline" />
    <path
       id="Body_f0022"
       d="M 30.159720626985923 191.4543056539632 L 30.159720626985923 191.4543056539632 L 33.218217046817884 191.95987429408547 L 33.21821704681788 191.95987429408552 L 30.159720626985923 191.4543056539632 Z "
       stroke="#191919"
       stroke-width="0.7 px"
       style="stroke-width:0.26458333;stroke-miterlimit:4;stroke-dasharray:none;stroke-linecap:square;fill:#cccce6;fill-opacity:1;fill-rule:evenodd;vector-effect:non-scaling-stroke;-inkscape-stroke:hairline" />
    <path
       id="Body_f0023"
       d="M 190.05732359843708 33.535867190331516 L 189.54182151620225 30.479029346543978 L 189.54182151620228 30.479029346543964 L 190.05732359843708 33.53586719033151 L 190.05732359843708 33.535867190331516 Z "
       stroke="#191919"
       stroke-width="0.7 px"
       style="stroke-width:0.26458333;stroke-miterlimit:4;stroke-dasharray:none;stroke-linecap:square;fill:#cccce6;fill-opacity:1;fill-rule:evenodd;vector-effect:non-scaling-stroke;-inkscape-stroke:hairline" />
    <path
       id="Body_f0024"
       d="M 190.05732359843708 33.535867190331516 C 169.7936140022758 36.98499040433256 149.6173545507857 41.34602689249525 130.3223862155843 48.26209717223626 C 111.03180681811762 55.16545536145128 92.55825981440249 65.12540185472481 78.27366759311616 79.81062081732458 C 64.07895552762567 94.20029180657367 54.50229426744347 112.53853149437342 47.799690128036495 131.61761914654664 C 40.94485250793233 151.1303254561259 36.63182952355186 171.5032750230646 33.21821704681787 191.9598742940855 L 33.218217046817884 191.9598742940855 C 36.63182952355174 171.5032750230641 40.94485250793247 151.13032545612666 47.799690128036445 131.61761914654625 C 54.502294267443276 112.53853149437387 64.07895552762605 94.20029180657342 78.27366759311573 79.81062081732449 C 92.55825981440334 65.12540185472449 111.03180681811696 55.16545536145176 130.3223862155846 48.26209717223589 C 149.61735455078517 41.34602689249571 169.79361400227617 36.98499040433231 190.05732359843705 33.535867190331516 L 190.05732359843708 33.535867190331516 Z "
       stroke="#191919"
       stroke-width="0.7 px"
       style="stroke-width:0.26458333;stroke-miterlimit:4;stroke-dasharray:none;stroke-linecap:square;fill:#cccce6;fill-opacity:1;fill-rule:evenodd;vector-effect:non-scaling-stroke;-inkscape-stroke:hairline" />
    <path
       id="Body_f0025"
       d="M 189.940754974945 46.3769978016811 C 172.52805390853294 50.771661569225024 155.2938238261675 56.241906903300574 138.93220721070355 63.876964903714146 C 122.1772176840559 71.67161958449279 106.39502025056623 82.0138777031314 93.40265844657348 95.33379705923741 C 80.62444352152991 108.31585031848603 70.73287080465792 123.88874004803496 63.22244178797702 140.34582380143513 C 55.654633867461456 156.89262143975682 50.245899654225255 174.29092557804904 45.89882500707924 191.8605467055808 L 45.89882500707923 191.8605467055808 C 50.245899659230915 174.2909255761118 55.65463386619692 156.89262143868143 63.222441787977374 140.3458238014345 C 70.73287080465735 123.88874004803566 80.62444352153015 108.31585031848596 93.4026584465735 95.33379705923717 C 106.39502025056619 82.01387770313157 122.17721768405558 71.67161958449283 138.93220721070378 63.876964903714054 C 155.29382382498576 56.241906902077176 172.5280539067379 50.7716615742163 189.940754974945 46.37699780168109 L 189.940754974945 46.3769978016811 Z "
       stroke="#191919"
       stroke-width="0.7 px"
       style="stroke-width:0.26458333;stroke-miterlimit:4;stroke-dasharray:none;stroke-linecap:square;fill:#cccce6;fill-opacity:1;fill-rule:evenodd;vector-effect:non-scaling-stroke;-inkscape-stroke:hairline" />
    <path
       id="Body_f0026"
       d="M 45.89882500707923 191.8605467055808 L 45.89882500707924 191.8605467055808 L 48.90866064501239 192.6027659674081 L 48.90866064501239 192.6027659674081 L 45.89882500707923 191.8605467055808 Z "
       stroke="#191919"
       stroke-width="0.7 px"
       style="stroke-width:0.26458333;stroke-miterlimit:4;stroke-dasharray:none;stroke-linecap:square;fill:#cccce6;fill-opacity:1;fill-rule:evenodd;vector-effect:non-scaling-stroke;-inkscape-stroke:hairline" />
    <path
       id="Body_f0027"
       d="M 190.69708381960237 49.38331892204385 L 189.940754974945 46.3769978016811 L 189.940754974945 46.3769978016811 L 190.69708381960237 49.38331892204385 L 190.69708381960237 49.38331892204385 Z "
       stroke="#191919"
       stroke-width="0.7 px"
       style="stroke-width:0.26458333;stroke-miterlimit:4;stroke-dasharray:none;stroke-linecap:square;fill:#cccce6;fill-opacity:1;fill-rule:evenodd;vector-effect:non-scaling-stroke;-inkscape-stroke:hairline" />
    <path
       id="Body_f0028"
       d="M 190.6970838196023 49.383318922043856 C 173.41368605052676 53.74436325101532 156.35566113990194 59.16616013590479 140.2454570769493 66.68505585466403 C 123.74280840279854 74.36430960533107 108.31078224509507 84.49094884430878 95.61649836572357 97.50380001139558 C 83.13250883731388 110.18788416108929 73.44142166082743 125.4237175695376 66.04046515781204 141.6376226584795 C 58.58553807982223 157.93509825336577 53.22329367856492 175.16028223957477 48.90866064501239 192.60276596740812 L 48.90866064501239 192.6027659674081 C 53.223293678565405 175.1602822395753 58.58553807982137 157.9350982533649 66.04046515781265 141.6376226584802 C 73.44142166082689 125.42371756953656 83.1325088373136 110.18788416108967 95.6164983657242 97.50380001139563 C 108.31078224509467 84.49094884430858 123.74280840279813 74.36430960533136 140.2454570769499 66.68505585466393 C 156.35566113990086 59.166160135904825 173.41368605052736 53.74436325101533 190.69708381960237 49.38331892204386 L 190.69708381960237 49.38331892204385 Z "
       stroke="#191919"
       stroke-width="0.7 px"
       style="stroke-width:0.26458333;stroke-miterlimit:4;stroke-dasharray:none;stroke-linecap:square;fill:#cccce6;fill-opacity:1;fill-rule:evenodd;vector-effect:non-scaling-stroke;-inkscape-stroke:hairline" />
    <path
       id="Body_f0029"
       d="M 188.65193619355028 62.76693578742602 C 159.03149769684563 72.74649117073648 130.14769530516196 87.50051550875568 108.02334110800103 110.24983710253163 C 86.0086086369614 132.56759112046416 71.82653310487683 161.2395804638602 62.1248063558387 190.5618047378634 L 62.1248063558387 190.56180473786338 C 71.82653310466665 161.23958047067165 86.0086086371155 132.56759111467613 108.02334110800206 110.24983710253161 C 130.14769529987583 87.50051550941413 159.03149770946072 72.74649116295905 188.65193619355028 62.766935787426036 L 188.65193619355028 62.76693578742603 Z "
       stroke="#191919"
       stroke-width="0.7 px"
       style="stroke-width:0.26458333;stroke-miterlimit:4;stroke-dasharray:none;stroke-linecap:square;fill:#cccce6;fill-opacity:1;fill-rule:evenodd;vector-effect:non-scaling-stroke;-inkscape-stroke:hairline" />
    <path
       id="Body_f0030"
       d="M 62.12480635583869 190.5618047378634 L 62.12480635583869 190.5618047378634 L 65.0661314806545 191.54088926441221 L 65.06613148065449 191.54088926441221 L 62.124806355838686 190.5618047378634 Z "
       stroke="#191919"
       stroke-width="0.7 px"
       style="stroke-width:0.26458333;stroke-miterlimit:4;stroke-dasharray:none;stroke-linecap:square;fill:#cccce6;fill-opacity:1;fill-rule:evenodd;vector-effect:non-scaling-stroke;-inkscape-stroke:hairline" />
    <path
       id="Body_f0031"
       d="M 189.64877247851203 65.7022922259159 L 188.65193619355028 62.76693578742603 L 188.65193619355028 62.76693578742603 L 189.64877247851203 65.70229222591588 L 189.64877247851203 65.7022922259159 Z "
       stroke="#191919"
       stroke-width="0.7 px"
       style="stroke-width:0.26458333;stroke-miterlimit:4;stroke-dasharray:none;stroke-linecap:square;fill:#cccce6;fill-opacity:1;fill-rule:evenodd;vector-effect:non-scaling-stroke;-inkscape-stroke:hairline" />
    <path
       id="Body_f0032"
       d="M 189.648772478512 65.70229222591587 C 160.2888376488533 75.5960962567955 131.9080339725965 90.13357273570062 110.23718102715151 112.4198400546903 C 88.66903078599006 134.2805849059544 74.685129725951 162.47121510131865 65.06613148065452 191.54088926441224 L 65.06613148065449 191.54088926441224 C 74.68512972595097 162.47121510131893 88.66903078599003 134.28058490595384 110.23718102715142 112.41984005469075 C 131.9080339725966 90.13357273569997 160.28883764885342 75.59609625679585 189.64877247851203 65.7022922259159 L 189.64877247851203 65.7022922259159 Z "
       stroke="#191919"
       stroke-width="0.7 px"
       style="stroke-width:0.26458333;stroke-miterlimit:4;stroke-dasharray:none;stroke-linecap:square;fill:#cccce6;fill-opacity:1;fill-rule:evenodd;vector-effect:non-scaling-stroke;-inkscape-stroke:hairline" />
    <path
       id="Body_f0033"
       d="M 195.05689390831552 81.36883516832629 C 169.1945540266777 92.24141809374274 144.64165971170962 107.21565058710317 124.90585124861957 127.47339657100568 C 105.40596666352756 147.2648530839839 91.05127652797698 171.55447029056214 80.54072904254377 197.03350904018276 L 80.54072904254379 197.03350904018282 C 91.05127652797712 171.55447029056194 105.40596666352695 147.264853083984 124.90585124861983 127.47339657100547 C 144.64165971170883 107.21565058710326 169.19455402667828 92.24141809374271 195.05689390831546 81.36883516832624 L 195.05689390831552 81.36883516832629 Z "
       stroke="#191919"
       stroke-width="0.7 px"
       style="stroke-width:0.26458333;stroke-miterlimit:4;stroke-dasharray:none;stroke-linecap:square;fill:#cccce6;fill-opacity:1;fill-rule:evenodd;vector-effect:non-scaling-stroke;-inkscape-stroke:hairline" />
    <path
       id="Body_f0034"
       d="M 196.26498505085485 84.22374598853025 L 195.05689390831552 81.36883516832629 L 195.05689390831552 81.36883516832629 L 196.26498505085485 84.22374598853024 L 196.26498505085485 84.22374598853025 Z "
       stroke="#191919"
       stroke-width="0.7 px"
       style="stroke-width:0.26458333;stroke-miterlimit:4;stroke-dasharray:none;stroke-linecap:square;fill:#cccce6;fill-opacity:1;fill-rule:evenodd;vector-effect:non-scaling-stroke;-inkscape-stroke:hairline" />
    <path
       id="Body_f0035"
       d="M 196.26498505085485 84.22374598853024 C 170.66459785536983 94.98862979913164 146.5125200846357 109.73884729341948 127.11969116776982 129.6433995231646 C 107.95919005615467 149.09083565083807 93.8121485729294 172.99507518440876 83.4041784018977 198.22122018621766 L 83.4041784018977 198.2212201862177 C 93.81214857292987 172.99507518440893 107.95919005615389 149.09083565083756 127.11969116777037 129.64339952316496 C 146.51252008463493 109.73884729341874 170.6645978553702 94.98862979913206 196.26498505085488 84.22374598853028 L 196.26498505085485 84.22374598853025 Z "
       stroke="#191919"
       stroke-width="0.7 px"
       style="stroke-width:0.26458333;stroke-miterlimit:4;stroke-dasharray:none;stroke-linecap:square;fill:#cccce6;fill-opacity:1;fill-rule:evenodd;vector-effect:non-scaling-stroke;-inkscape-stroke:hairline" />
    <path
       id="Body_f0036"
       d="M 80.54072904254377 197.03350904018276 L 80.54072904254377 197.03350904018276 L 83.40417840189772 198.22122018621766 L 83.4041784018977 198.22122018621766 L 80.54072904254375 197.0335090401828 Z "
       stroke="#191919"
       stroke-width="0.7 px"
       style="stroke-width:0.26458333;stroke-miterlimit:4;stroke-dasharray:none;stroke-linecap:square;fill:#cccce6;fill-opacity:1;fill-rule:evenodd;vector-effect:non-scaling-stroke;-inkscape-stroke:hairline" />
    <circle
       cx="200.9999999999458"
       cy="200.99999999994583"
       r="1.7999999999999998"
       stroke="#191919"
       stroke-width="0.7 px"
       style="stroke-width:0.26458333;stroke-miterlimit:4;stroke-dasharray:none;stroke-linecap:square;fill:#cccce6;vector-effect:non-scaling-stroke;-inkscape-stroke:hairline"
       id="circle44" />
    <title
       id="title46">b'Body'</title>
  </g>
</svg>
