999
"DXF R12 Output" (www.mydxf.blogspot.com)
 0 
SECTION
 2 
HEADER
 9 
$ACADVER
 1 
AC1009
 9 
$EXTMIN
 10 
 0 
 20 
 0 
 9 
$EXTMAX
 10 
 8.5 
 20 
 11 
 0 
ENDSEC
 0 
SECTION
 2 
ENTITIES
0
LINE
8
Layer 1
10
0.793749
20
297.794000
11
-0.793749
21
296.206000
0
LINE
8
Layer 1
10
0.000000
20
298.323000
11
0.000000
21
295.677000
0
LINE
8
Layer 1
10
2.116660
20
295.942000
11
1.058330
21
294.883670
0
LINE
8
Layer 1
10
1.587500
20
296.471000
11
0.529170
21
295.412670
0
LINE
8
Layer 1
10
1.058330
20
297.000000
11
0.000000
21
295.941670
0
LINE
8
SubtractivePipe005
10
0.000000
20
0.000291
11
0.000000
21
0.000291
0
LINE
8
SubtractivePipe005
10
0.000000
20
0.000291
11
0.000000
21
206.000000
0
LINE
8
SubtractivePipe005
10
0.000000
20
206.000000
11
0.000000
21
206.000000
0
LINE
8
SubtractivePipe005
10
0.000000
20
0.000291
11
206.000000
21
0.000291
0
LINE
8
SubtractivePipe005
10
206.000000
20
0.000291
11
206.000000
21
0.000291
0
LINE
8
SubtractivePipe005
10
0.000000
20
0.000291
11
0.000000
21
0.000291
0
LINE
8
SubtractivePipe005
10
0.000000
20
206.000000
11
206.000000
21
206.000000
0
LINE
8
SubtractivePipe005
10
206.000000
20
0.000291
11
206.000000
21
206.000000
0
LINE
8
SubtractivePipe005
10
6.799990
20
5.000370
11
6.657318
21
5.699648
0
LINE
8
SubtractivePipe005
10
6.657318
20
5.699648
11
6.271286
21
6.270419
0
LINE
8
SubtractivePipe005
10
6.271286
20
6.270419
11
5.699608
21
6.655104
0
LINE
8
SubtractivePipe005
10
5.699608
20
6.655104
11
4.999995
21
6.796127
0
LINE
8
SubtractivePipe005
10
4.999995
20
6.796127
11
4.300382
21
6.655104
0
LINE
8
SubtractivePipe005
10
4.300382
20
6.655104
11
3.728704
21
6.270419
0
LINE
8
SubtractivePipe005
10
3.728704
20
6.270419
11
3.342672
21
5.699648
0
LINE
8
SubtractivePipe005
10
3.342672
20
5.699648
11
3.200000
21
5.000370
0
LINE
8
SubtractivePipe005
10
3.200000
20
5.000370
11
3.342672
21
4.301092
0
LINE
8
SubtractivePipe005
10
3.342672
20
4.301092
11
3.728704
21
3.730321
0
LINE
8
SubtractivePipe005
10
3.728704
20
3.730321
11
4.300382
21
3.345636
0
LINE
8
SubtractivePipe005
10
4.300382
20
3.345636
11
4.999995
21
3.204613
0
LINE
8
SubtractivePipe005
10
4.999995
20
3.204613
11
5.699608
21
3.345636
0
LINE
8
SubtractivePipe005
10
5.699608
20
3.345636
11
6.271286
21
3.730321
0
LINE
8
SubtractivePipe005
10
6.271286
20
3.730321
11
6.657318
21
4.301092
0
LINE
8
SubtractivePipe005
10
6.657318
20
4.301092
11
6.799990
21
5.000370
0
LINE
8
SubtractivePipe005
10
6.799990
20
5.000370
11
6.799990
21
5.000370
0
LINE
8
SubtractivePipe005
10
22.892700
20
114.183000
11
24.751675
21
106.117900
0
LINE
8
SubtractivePipe005
10
24.751675
20
106.117900
11
26.895800
21
98.112200
0
LINE
8
SubtractivePipe005
10
26.895800
20
98.112200
11
29.508938
21
89.833012
0
LINE
8
SubtractivePipe005
10
29.508938
20
89.833012
11
32.584900
21
81.693700
0
LINE
8
SubtractivePipe005
10
32.584900
20
81.693700
11
34.362591
21
77.616981
0
LINE
8
SubtractivePipe005
10
34.362591
20
77.616981
11
36.299300
21
73.605625
0
LINE
8
SubtractivePipe005
10
36.299300
20
73.605625
11
38.407309
21
69.674931
0
LINE
8
SubtractivePipe005
10
38.407309
20
69.674931
11
40.698900
21
65.840200
0
LINE
8
SubtractivePipe005
10
40.698900
20
65.840200
11
43.074116
21
62.274317
0
LINE
8
SubtractivePipe005
10
43.074116
20
62.274317
11
45.631975
21
58.830862
0
LINE
8
SubtractivePipe005
10
45.631975
20
58.830862
11
48.371372
21
55.526102
0
LINE
8
SubtractivePipe005
10
48.371372
20
55.526102
11
51.291200
21
52.376300
0
LINE
8
SubtractivePipe005
10
51.291200
20
52.376300
11
54.368788
21
49.406469
0
LINE
8
SubtractivePipe005
10
54.368788
20
49.406469
11
57.605150
21
46.613225
0
LINE
8
SubtractivePipe005
10
57.605150
20
46.613225
11
60.984763
21
43.999269
0
LINE
8
SubtractivePipe005
10
60.984763
20
43.999269
11
64.492100
21
41.567300
0
LINE
8
SubtractivePipe005
10
64.492100
20
41.567300
11
68.244380
21
39.233137
0
LINE
8
SubtractivePipe005
10
68.244380
20
39.233137
11
72.096887
21
37.082200
0
LINE
8
SubtractivePipe005
10
72.096887
20
37.082200
11
76.034052
21
35.103162
0
LINE
8
SubtractivePipe005
10
76.034052
20
35.103162
11
80.040300
21
33.284700
0
LINE
8
SubtractivePipe005
10
80.040300
20
33.284700
11
88.017088
21
30.147013
0
LINE
8
SubtractivePipe005
10
88.017088
20
30.147013
11
96.142000
21
27.477700
0
LINE
8
SubtractivePipe005
10
96.142000
20
27.477700
11
104.553750
21
25.145300
0
LINE
8
SubtractivePipe005
10
104.553750
20
25.145300
11
113.036000
21
23.141400
0
LINE
8
SubtractivePipe005
10
113.036000
20
23.140700
11
113.762000
21
26.463900
0
LINE
8
SubtractivePipe005
10
26.217200
20
114.895000
11
28.051800
21
106.935925
0
LINE
8
SubtractivePipe005
10
28.051800
20
106.935925
11
30.161800
21
99.057400
0
LINE
8
SubtractivePipe005
10
30.161800
20
99.057400
11
32.723737
21
90.939737
0
LINE
8
SubtractivePipe005
10
32.723737
20
90.939737
11
35.725400
21
82.996300
0
LINE
8
SubtractivePipe005
10
35.725400
20
82.996300
11
37.453269
21
79.033856
0
LINE
8
SubtractivePipe005
10
37.453269
20
79.033856
11
39.330050
21
75.146600
0
LINE
8
SubtractivePipe005
10
39.330050
20
75.146600
11
41.366656
21
71.348894
0
LINE
8
SubtractivePipe005
10
41.366656
20
71.348894
11
43.574000
21
67.655100
0
LINE
8
SubtractivePipe005
10
43.574000
20
67.655100
11
45.855691
21
64.229630
0
LINE
8
SubtractivePipe005
10
45.855691
20
64.229630
11
48.307125
21
60.929288
0
LINE
8
SubtractivePipe005
10
48.307125
20
60.929288
11
50.928322
21
57.767152
0
LINE
8
SubtractivePipe005
10
50.928322
20
57.767152
11
53.719300
21
54.756300
0
LINE
8
SubtractivePipe005
10
53.719300
20
54.756300
11
56.660644
21
51.917950
0
LINE
8
SubtractivePipe005
10
56.660644
20
51.917950
11
59.755925
21
49.246400
0
LINE
8
SubtractivePipe005
10
59.755925
20
49.246400
11
62.992844
21
46.742925
0
LINE
8
SubtractivePipe005
10
62.992844
20
46.742925
11
66.359100
21
44.408800
0
LINE
8
SubtractivePipe005
10
66.359100
20
44.408800
11
69.969656
21
42.162883
0
LINE
8
SubtractivePipe005
10
69.969656
20
42.162883
11
73.687575
21
40.087187
0
LINE
8
SubtractivePipe005
10
73.687575
20
40.087187
11
77.498456
21
38.171673
0
LINE
8
SubtractivePipe005
10
77.498456
20
38.171673
11
81.387900
21
36.406300
0
LINE
8
SubtractivePipe005
10
81.387900
20
36.406300
11
89.164087
21
33.347675
0
LINE
8
SubtractivePipe005
10
89.164087
20
33.347675
11
97.122600
21
30.733200
0
LINE
8
SubtractivePipe005
10
97.122600
20
30.733200
11
105.394450
21
28.439712
0
LINE
8
SubtractivePipe005
10
105.394450
20
28.439712
11
113.762000
21
26.462800
0
LINE
8
SubtractivePipe005
10
25.596200
20
164.718000
11
27.925200
21
151.732875
0
LINE
8
SubtractivePipe005
10
27.925200
20
151.732875
11
30.671500
21
138.816000
0
LINE
8
SubtractivePipe005
10
30.671500
20
138.816000
11
32.306428
21
132.114266
0
LINE
8
SubtractivePipe005
10
32.306428
20
132.114266
11
34.103525
21
125.447875
0
LINE
8
SubtractivePipe005
10
34.103525
20
125.447875
11
36.086434
21
118.828547
0
LINE
8
SubtractivePipe005
10
36.086434
20
118.828547
11
38.278800
21
112.268000
0
LINE
8
SubtractivePipe005
10
38.278800
20
112.268000
11
40.615081
21
106.020600
0
LINE
8
SubtractivePipe005
10
40.615081
20
106.020600
11
43.199350
21
99.861625
0
LINE
8
SubtractivePipe005
10
43.199350
20
99.861625
11
46.059469
21
93.817662
0
LINE
8
SubtractivePipe005
10
46.059469
20
93.817662
11
49.223300
21
87.915300
0
LINE
8
SubtractivePipe005
10
49.223300
20
87.915300
11
52.632388
21
82.318038
0
LINE
8
SubtractivePipe005
10
52.632388
20
82.318038
11
56.372000
21
76.926500
0
LINE
8
SubtractivePipe005
10
56.372000
20
76.926500
11
60.606125
21
71.595525
0
LINE
8
SubtractivePipe005
10
60.606125
20
71.595525
11
65.200400
21
66.566500
0
LINE
8
SubtractivePipe005
10
65.200400
20
66.566500
11
70.123275
21
61.885238
0
LINE
8
SubtractivePipe005
10
70.123275
20
61.885238
11
75.356800
21
57.558500
0
LINE
8
SubtractivePipe005
10
75.356800
20
57.558500
11
81.064975
21
53.458525
0
LINE
8
SubtractivePipe005
10
81.064975
20
53.458525
11
87.019000
21
49.740600
0
LINE
8
SubtractivePipe005
10
87.019000
20
49.740600
11
92.857573
21
46.547519
0
LINE
8
SubtractivePipe005
10
92.857573
20
46.547519
11
98.841037
21
43.658450
0
LINE
8
SubtractivePipe005
10
98.841037
20
43.658450
11
104.942233
21
41.046206
0
LINE
8
SubtractivePipe005
10
104.942233
20
41.046206
11
111.134000
21
38.683600
0
LINE
8
SubtractivePipe005
10
111.134000
20
38.683600
11
117.627781
21
36.469755
0
LINE
8
SubtractivePipe005
10
117.627781
20
36.469755
11
124.181750
21
34.466687
0
LINE
8
SubtractivePipe005
10
124.181750
20
34.466687
11
130.784094
21
32.650802
0
LINE
8
SubtractivePipe005
10
130.784094
20
32.650802
11
137.423000
21
30.998500
0
LINE
8
SubtractivePipe005
10
137.423000
20
30.998500
11
150.211375
21
28.224563
0
LINE
8
SubtractivePipe005
10
150.211375
20
28.224563
11
163.071000
21
25.871600
0
LINE
8
SubtractivePipe005
10
25.596300
20
164.718000
11
28.950700
21
165.273000
0
LINE
8
SubtractivePipe005
10
28.950700
20
165.273000
11
31.262588
21
152.382125
0
LINE
8
SubtractivePipe005
10
31.262588
20
152.382125
11
33.983300
21
139.585000
0
LINE
8
SubtractivePipe005
10
33.983300
20
139.585000
11
35.600017
21
132.957719
0
LINE
8
SubtractivePipe005
10
35.600017
20
132.957719
11
37.374338
21
126.376000
0
LINE
8
SubtractivePipe005
10
37.374338
20
126.376000
11
39.328414
21
119.852781
0
LINE
8
SubtractivePipe005
10
39.328414
20
119.852781
11
41.484400
21
113.401000
0
LINE
8
SubtractivePipe005
10
41.484400
20
113.401000
11
43.776575
21
107.271555
0
LINE
8
SubtractivePipe005
10
43.776575
20
107.271555
11
46.305600
21
101.244287
0
LINE
8
SubtractivePipe005
10
46.305600
20
101.244287
11
49.096825
21
95.345552
0
LINE
8
SubtractivePipe005
10
49.096825
20
95.345552
11
52.175600
21
89.601700
0
LINE
8
SubtractivePipe005
10
52.175600
20
89.601700
11
55.483875
21
84.169813
0
LINE
8
SubtractivePipe005
10
55.483875
20
84.169813
11
59.104000
21
78.950400
0
LINE
8
SubtractivePipe005
10
59.104000
20
78.950400
11
63.194800
21
73.799762
0
LINE
8
SubtractivePipe005
10
63.194800
20
73.799762
11
67.628500
21
68.946500
0
LINE
8
SubtractivePipe005
10
67.628500
20
68.946500
11
72.378600
21
64.429550
0
LINE
8
SubtractivePipe005
10
72.378600
20
64.429550
11
77.432900
21
60.251000
0
LINE
8
SubtractivePipe005
10
77.432900
20
60.251000
11
82.955675
21
56.284337
0
LINE
8
SubtractivePipe005
10
82.955675
20
56.284337
11
88.730900
21
52.678200
0
LINE
8
SubtractivePipe005
10
88.730900
20
52.678200
11
94.410105
21
49.572359
0
LINE
8
SubtractivePipe005
10
94.410105
20
49.572359
11
100.247062
21
46.754200
0
LINE
8
SubtractivePipe005
10
100.247062
20
46.754200
11
106.215214
21
44.198991
0
LINE
8
SubtractivePipe005
10
106.215214
20
44.198991
11
112.288000
21
41.882000
0
LINE
8
SubtractivePipe005
10
112.288000
20
41.882000
11
118.671516
21
39.705761
0
LINE
8
SubtractivePipe005
10
118.671516
20
39.705761
11
125.127875
21
37.732537
0
LINE
8
SubtractivePipe005
10
125.127875
20
37.732537
11
131.644047
21
35.940270
0
LINE
8
SubtractivePipe005
10
131.644047
20
35.940270
11
138.207000
21
34.306900
0
LINE
8
SubtractivePipe005
10
138.207000
20
34.306900
11
150.873500
21
31.559463
0
LINE
8
SubtractivePipe005
10
150.873500
20
31.559463
11
163.636000
21
29.224300
0
LINE
8
SubtractivePipe005
10
202.800000
20
5.000370
11
202.558846
21
5.900370
0
LINE
8
SubtractivePipe005
10
202.558846
20
5.900370
11
201.900000
21
6.559216
0
LINE
8
SubtractivePipe005
10
201.900000
20
6.559216
11
201.000000
21
6.800370
0
LINE
8
SubtractivePipe005
10
201.000000
20
6.800370
11
200.100000
21
6.559216
0
LINE
8
SubtractivePipe005
10
200.100000
20
6.559216
11
199.441154
21
5.900370
0
LINE
8
SubtractivePipe005
10
199.441154
20
5.900370
11
199.200000
21
5.000370
0
LINE
8
SubtractivePipe005
10
199.200000
20
5.000370
11
199.341453
21
4.299729
0
LINE
8
SubtractivePipe005
10
199.341453
20
4.299729
11
199.727208
21
3.727578
0
LINE
8
SubtractivePipe005
10
199.727208
20
3.727578
11
200.299359
21
3.341823
0
LINE
8
SubtractivePipe005
10
200.299359
20
3.341823
11
201.000000
21
3.200370
0
LINE
8
SubtractivePipe005
10
201.000000
20
3.200370
11
201.700641
21
3.341823
0
LINE
8
SubtractivePipe005
10
201.700641
20
3.341823
11
202.272792
21
3.727578
0
LINE
8
SubtractivePipe005
10
202.272792
20
3.727578
11
202.658547
21
4.299729
0
LINE
8
SubtractivePipe005
10
202.658547
20
4.299729
11
202.800000
21
5.000370
0
LINE
8
SubtractivePipe005
10
202.800000
20
5.000370
11
202.800000
21
5.000370
0
LINE
8
SubtractivePipe005
10
6.799990
20
201.000000
11
6.657318
21
201.699278
0
LINE
8
SubtractivePipe005
10
6.657318
20
201.699278
11
6.271286
21
202.270049
0
LINE
8
SubtractivePipe005
10
6.271286
20
202.270049
11
5.699608
21
202.654734
0
LINE
8
SubtractivePipe005
10
5.699608
20
202.654734
11
4.999995
21
202.795757
0
LINE
8
SubtractivePipe005
10
4.999995
20
202.795757
11
4.300382
21
202.654734
0
LINE
8
SubtractivePipe005
10
4.300382
20
202.654734
11
3.728704
21
202.270049
0
LINE
8
SubtractivePipe005
10
3.728704
20
202.270049
11
3.342672
21
201.699278
0
LINE
8
SubtractivePipe005
10
3.342672
20
201.699278
11
3.200000
21
201.000000
0
LINE
8
SubtractivePipe005
10
3.200000
20
201.000000
11
3.342672
21
200.300722
0
LINE
8
SubtractivePipe005
10
3.342672
20
200.300722
11
3.728704
21
199.729951
0
LINE
8
SubtractivePipe005
10
3.728704
20
199.729951
11
4.300382
21
199.345266
0
LINE
8
SubtractivePipe005
10
4.300382
20
199.345266
11
4.999995
21
199.204243
0
LINE
8
SubtractivePipe005
10
4.999995
20
199.204243
11
5.699608
21
199.345266
0
LINE
8
SubtractivePipe005
10
5.699608
20
199.345266
11
6.271286
21
199.729951
0
LINE
8
SubtractivePipe005
10
6.271286
20
199.729951
11
6.657318
21
200.300722
0
LINE
8
SubtractivePipe005
10
6.657318
20
200.300722
11
6.799990
21
201.000000
0
LINE
8
SubtractivePipe005
10
6.799990
20
201.000000
11
6.799990
21
201.000000
0
LINE
8
SubtractivePipe005
10
38.422400
20
179.263000
11
41.451113
21
166.638875
0
LINE
8
SubtractivePipe005
10
41.451113
20
166.638875
11
44.940400
21
154.122000
0
LINE
8
SubtractivePipe005
10
44.940400
20
154.122000
11
46.983609
21
147.621844
0
LINE
8
SubtractivePipe005
10
46.983609
20
147.621844
11
49.194800
21
141.171750
0
LINE
8
SubtractivePipe005
10
49.194800
20
141.171750
11
51.591541
21
134.783531
0
LINE
8
SubtractivePipe005
10
51.591541
20
134.783531
11
54.191400
21
128.469000
0
LINE
8
SubtractivePipe005
10
54.191400
20
128.469000
11
56.948894
21
122.380297
0
LINE
8
SubtractivePipe005
10
56.948894
20
122.380297
11
59.936825
21
116.393875
0
LINE
8
SubtractivePipe005
10
59.936825
20
116.393875
11
63.170869
21
110.531016
0
LINE
8
SubtractivePipe005
10
63.170869
20
110.531016
11
66.666700
21
104.813000
0
LINE
8
SubtractivePipe005
10
66.666700
20
104.813000
11
70.306619
21
99.443989
0
LINE
8
SubtractivePipe005
10
70.306619
20
99.443989
11
74.209075
21
94.257088
0
LINE
8
SubtractivePipe005
10
74.209075
20
94.257088
11
78.372269
21
89.273867
0
LINE
8
SubtractivePipe005
10
78.372269
20
89.273867
11
82.794400
21
84.515900
0
LINE
8
SubtractivePipe005
10
82.794400
20
84.515900
11
87.677598
21
79.803567
0
LINE
8
SubtractivePipe005
10
87.677598
20
79.803567
11
92.813388
21
75.370863
0
LINE
8
SubtractivePipe005
10
92.813388
20
75.370863
11
98.177833
21
71.221677
0
LINE
8
SubtractivePipe005
10
98.177833
20
71.221677
11
103.747000
21
67.359900
0
LINE
8
SubtractivePipe005
10
103.747000
20
67.359900
11
109.403328
21
63.832025
0
LINE
8
SubtractivePipe005
10
109.403328
20
63.832025
11
115.207125
21
60.565600
0
LINE
8
SubtractivePipe005
10
115.207125
20
60.565600
11
121.137109
21
57.545625
0
LINE
8
SubtractivePipe005
10
121.137109
20
57.545625
11
127.172000
21
54.757100
0
LINE
8
SubtractivePipe005
10
127.172000
20
54.757100
11
133.421437
21
52.132123
0
LINE
8
SubtractivePipe005
10
133.421437
20
52.132123
11
139.746250
21
49.711137
0
LINE
8
SubtractivePipe005
10
139.746250
20
49.711137
11
146.134437
21
47.476733
0
LINE
8
SubtractivePipe005
10
146.134437
20
47.476733
11
152.574000
21
45.411500
0
LINE
8
SubtractivePipe005
10
152.574000
20
45.411500
11
164.965875
21
41.887300
0
LINE
8
SubtractivePipe005
10
164.965875
20
41.887300
11
177.468000
21
38.827200
0
LINE
8
SubtractivePipe005
10
41.740800
20
180.004000
11
44.743350
21
167.488125
0
LINE
8
SubtractivePipe005
10
44.743350
20
167.488125
11
48.195900
21
155.102000
0
LINE
8
SubtractivePipe005
10
48.195900
20
155.102000
11
50.214236
21
148.681422
0
LINE
8
SubtractivePipe005
10
50.214236
20
148.681422
11
52.395538
21
142.318875
0
LINE
8
SubtractivePipe005
10
52.395538
20
142.318875
11
54.756295
21
136.026641
0
LINE
8
SubtractivePipe005
10
54.756295
20
136.026641
11
57.313000
21
129.817000
0
LINE
8
SubtractivePipe005
10
57.313000
20
129.817000
11
60.019961
21
123.839078
0
LINE
8
SubtractivePipe005
10
60.019961
20
123.839078
11
62.947937
21
117.972625
0
LINE
8
SubtractivePipe005
10
62.947937
20
117.972625
11
66.111470
21
112.237609
0
LINE
8
SubtractivePipe005
10
66.111470
20
112.237609
11
69.525100
21
106.654000
0
LINE
8
SubtractivePipe005
10
69.525100
20
106.654000
11
73.073919
21
101.419369
0
LINE
8
SubtractivePipe005
10
73.073919
20
101.419369
11
76.873575
21
96.368975
0
LINE
8
SubtractivePipe005
10
76.873575
20
96.368975
11
80.923319
21
91.521569
0
LINE
8
SubtractivePipe005
10
80.923319
20
91.521569
11
85.222400
21
86.895900
0
LINE
8
SubtractivePipe005
10
85.222400
20
86.895900
11
89.969455
21
82.315048
0
LINE
8
SubtractivePipe005
10
89.969455
20
82.315048
11
94.964187
21
78.004038
0
LINE
8
SubtractivePipe005
10
94.964187
20
78.004038
11
100.185927
21
73.965333
0
LINE
8
SubtractivePipe005
10
100.185927
20
73.965333
11
105.614000
21
70.201400
0
LINE
8
SubtractivePipe005
10
105.614000
20
70.201400
11
111.135312
21
66.757592
0
LINE
8
SubtractivePipe005
10
111.135312
20
66.757592
11
116.810750
21
63.563488
0
LINE
8
SubtractivePipe005
10
116.810750
20
63.563488
11
122.620062
21
60.605164
0
LINE
8
SubtractivePipe005
10
122.620062
20
60.605164
11
128.543000
21
57.868700
0
LINE
8
SubtractivePipe005
10
128.543000
20
57.868700
11
134.686078
21
55.288216
0
LINE
8
SubtractivePipe005
10
134.686078
20
55.288216
11
140.913625
21
52.904400
0
LINE
8
SubtractivePipe005
10
140.913625
20
52.904400
11
147.213359
21
50.700959
0
LINE
8
SubtractivePipe005
10
147.213359
20
50.700959
11
153.573000
21
48.661600
0
LINE
8
SubtractivePipe005
10
153.573000
20
48.661600
11
165.831250
21
45.175350
0
LINE
8
SubtractivePipe005
10
165.831250
20
45.175350
11
178.223000
21
42.142400
0
LINE
8
SubtractivePipe005
10
52.978200
20
180.808000
11
56.567600
21
169.622625
0
LINE
8
SubtractivePipe005
10
56.567600
20
169.622625
11
60.603400
21
158.579000
0
LINE
8
SubtractivePipe005
10
60.603400
20
158.579000
11
65.036100
21
147.981250
0
LINE
8
SubtractivePipe005
10
65.036100
20
147.981250
11
67.455719
21
142.766844
0
LINE
8
SubtractivePipe005
10
67.455719
20
142.766844
11
70.021700
21
137.619000
0
LINE
8
SubtractivePipe005
10
70.021700
20
137.619000
11
72.881995
21
132.296000
0
LINE
8
SubtractivePipe005
10
72.881995
20
132.296000
11
75.920687
21
127.068250
0
LINE
8
SubtractivePipe005
10
75.920687
20
127.068250
11
79.144086
21
121.948875
0
LINE
8
SubtractivePipe005
10
79.144086
20
121.948875
11
82.558500
21
116.951000
0
LINE
8
SubtractivePipe005
10
82.558500
20
116.951000
11
85.979997
21
112.329891
0
LINE
8
SubtractivePipe005
10
85.979997
20
112.329891
11
89.578025
21
107.842375
0
LINE
8
SubtractivePipe005
10
89.578025
20
107.842375
11
93.350316
21
103.498672
0
LINE
8
SubtractivePipe005
10
93.350316
20
103.498672
11
97.294600
21
99.309000
0
LINE
8
SubtractivePipe005
10
97.294600
20
99.309000
11
101.391597
21
95.294170
0
LINE
8
SubtractivePipe005
10
101.391597
20
95.294170
11
105.646075
21
91.447762
0
LINE
8
SubtractivePipe005
10
105.646075
20
91.447762
11
110.048416
21
87.773123
0
LINE
8
SubtractivePipe005
10
110.048416
20
87.773123
11
114.589000
21
84.273600
0
LINE
8
SubtractivePipe005
10
114.589000
20
84.273600
11
119.479469
21
80.796128
0
LINE
8
SubtractivePipe005
10
119.479469
20
80.796128
11
124.495750
21
77.508275
0
LINE
8
SubtractivePipe005
10
124.495750
20
77.508275
11
129.624906
21
74.404734
0
LINE
8
SubtractivePipe005
10
129.624906
20
74.404734
11
134.854000
21
71.480200
0
LINE
8
SubtractivePipe005
10
134.854000
20
71.480200
11
140.276203
21
68.674425
0
LINE
8
SubtractivePipe005
10
140.276203
20
68.674425
11
145.778375
21
66.037700
0
LINE
8
SubtractivePipe005
10
145.778375
20
66.037700
11
151.350859
21
63.560425
0
LINE
8
SubtractivePipe005
10
151.350859
20
63.560425
11
156.984000
21
61.233000
0
LINE
8
SubtractivePipe005
10
156.984000
20
61.233000
11
167.916000
21
57.157088
0
LINE
8
SubtractivePipe005
10
167.916000
20
57.157088
11
178.995000
21
53.530200
0
LINE
8
SubtractivePipe005
10
52.978200
20
180.808000
11
56.233700
21
181.789000
0
LINE
8
SubtractivePipe005
10
178.995000
20
53.530200
11
179.994000
21
56.780100
0
LINE
8
SubtractivePipe005
10
56.233800
20
181.789000
11
59.784813
21
170.722250
0
LINE
8
SubtractivePipe005
10
59.784813
20
170.722250
11
63.770300
21
159.816000
0
LINE
8
SubtractivePipe005
10
63.770300
20
159.816000
11
68.139087
21
149.371250
0
LINE
8
SubtractivePipe005
10
68.139087
20
149.371250
11
70.520005
21
144.240094
0
LINE
8
SubtractivePipe005
10
70.520005
20
144.240094
11
73.042100
21
139.180000
0
LINE
8
SubtractivePipe005
10
73.042100
20
139.180000
11
75.850234
21
133.953969
0
LINE
8
SubtractivePipe005
10
75.850234
20
133.953969
11
78.830025
21
128.827500
0
LINE
8
SubtractivePipe005
10
78.830025
20
128.827500
11
81.987453
21
123.812781
0
LINE
8
SubtractivePipe005
10
81.987453
20
123.812781
11
85.328500
21
118.922000
0
LINE
8
SubtractivePipe005
10
85.328500
20
118.922000
11
88.673525
21
114.404594
0
LINE
8
SubtractivePipe005
10
88.673525
20
114.404594
11
92.188650
21
110.020500
0
LINE
8
SubtractivePipe005
10
92.188650
20
110.020500
11
95.872225
21
105.778906
0
LINE
8
SubtractivePipe005
10
95.872225
20
105.778906
11
99.722600
21
101.689000
0
LINE
8
SubtractivePipe005
10
99.722600
20
101.689000
11
103.721737
21
97.769994
0
LINE
8
SubtractivePipe005
10
103.721737
20
97.769994
11
107.875450
21
94.014675
0
LINE
8
SubtractivePipe005
10
107.875450
20
94.014675
11
112.175338
21
90.425669
0
LINE
8
SubtractivePipe005
10
112.175338
20
90.425669
11
116.613000
21
87.005600
0
LINE
8
SubtractivePipe005
10
116.613000
20
87.005600
11
121.396031
21
83.604423
0
LINE
8
SubtractivePipe005
10
121.396031
20
83.604423
11
126.306750
21
80.385563
0
LINE
8
SubtractivePipe005
10
126.306750
20
80.385563
11
131.333344
21
77.343945
0
LINE
8
SubtractivePipe005
10
131.333344
20
77.343945
11
136.464000
21
74.474500
0
LINE
8
SubtractivePipe005
10
136.464000
20
74.474500
11
141.791000
21
71.718244
0
LINE
8
SubtractivePipe005
10
141.791000
20
71.718244
11
147.202750
21
69.125000
0
LINE
8
SubtractivePipe005
10
147.202750
20
69.125000
11
152.689875
21
66.685731
0
LINE
8
SubtractivePipe005
10
152.689875
20
66.685731
11
158.243000
21
64.391400
0
LINE
8
SubtractivePipe005
10
158.243000
20
64.391400
11
169.036000
21
60.367400
0
LINE
8
SubtractivePipe005
10
169.036000
20
60.367400
11
179.994000
21
56.780200
0
LINE
8
SubtractivePipe005
10
75.968500
20
183.620000
11
79.758271
21
174.753094
0
LINE
8
SubtractivePipe005
10
79.758271
20
174.753094
11
83.880208
21
166.042000
0
LINE
8
SubtractivePipe005
10
83.880208
20
166.042000
11
88.360040
21
157.518706
0
LINE
8
SubtractivePipe005
10
88.360040
20
157.518706
11
93.223500
21
149.215200
0
LINE
8
SubtractivePipe005
10
93.223500
20
149.215200
11
98.314460
21
141.423971
0
LINE
8
SubtractivePipe005
10
98.314460
20
141.423971
11
103.795900
21
133.908900
0
LINE
8
SubtractivePipe005
10
103.795900
20
133.908900
11
110.040848
21
126.279501
0
LINE
8
SubtractivePipe005
10
110.040848
20
126.279501
11
116.725700
21
119.036000
0
LINE
8
SubtractivePipe005
10
116.725700
20
119.036000
11
123.816913
21
112.224179
0
LINE
8
SubtractivePipe005
10
123.816913
20
112.224179
11
131.303000
21
105.846000
0
LINE
8
SubtractivePipe005
10
131.303000
20
105.846000
11
139.359021
21
99.761065
0
LINE
8
SubtractivePipe005
10
139.359021
20
99.761065
11
147.751500
21
94.138700
0
LINE
8
SubtractivePipe005
10
147.751500
20
94.138700
11
155.962430
21
89.232022
0
LINE
8
SubtractivePipe005
10
155.962430
20
89.232022
11
164.397188
21
84.708650
0
LINE
8
SubtractivePipe005
10
164.397188
20
84.708650
11
173.023627
21
80.543778
0
LINE
8
SubtractivePipe005
10
173.023627
20
80.543778
11
181.809600
21
76.712600
0
LINE
8
SubtractivePipe005
10
72.818800
20
182.339000
11
75.968400
21
183.619580
0
LINE
8
SubtractivePipe005
10
72.818840
20
182.338970
11
76.656919
21
173.359142
0
LINE
8
SubtractivePipe005
10
76.656919
20
173.359142
11
80.837049
21
164.525095
0
LINE
8
SubtractivePipe005
10
80.837049
20
164.525095
11
85.386425
21
155.869661
0
LINE
8
SubtractivePipe005
10
85.386425
20
155.869661
11
90.332240
21
147.425670
0
LINE
8
SubtractivePipe005
10
90.332240
20
147.425670
11
95.515969
21
139.492556
0
LINE
8
SubtractivePipe005
10
95.515969
20
139.492556
11
101.103340
21
131.832270
0
LINE
8
SubtractivePipe005
10
101.103340
20
131.832270
11
107.474364
21
124.048911
0
LINE
8
SubtractivePipe005
10
107.474364
20
124.048911
11
110.830252
21
120.301064
0
LINE
8
SubtractivePipe005
10
110.830252
20
120.301064
11
114.297540
21
116.655470
0
LINE
8
SubtractivePipe005
10
114.297540
20
116.655470
11
117.864561
21
113.124248
0
LINE
8
SubtractivePipe005
10
117.864561
20
113.124248
11
121.536080
21
109.702121
0
LINE
8
SubtractivePipe005
10
121.536080
20
109.702121
11
129.174940
21
103.193770
0
LINE
8
SubtractivePipe005
10
129.174940
20
103.193770
11
133.237245
21
100.031331
0
LINE
8
SubtractivePipe005
10
133.237245
20
100.031331
11
137.388978
21
96.989447
0
LINE
8
SubtractivePipe005
10
137.388978
20
96.989447
11
145.936540
21
91.263070
0
LINE
8
SubtractivePipe005
10
145.936540
20
91.263070
11
154.288421
21
86.272110
0
LINE
8
SubtractivePipe005
10
154.288421
20
86.272110
11
162.856190
21
81.677327
0
LINE
8
SubtractivePipe005
10
162.856190
20
81.677327
11
171.606734
21
77.452517
0
LINE
8
SubtractivePipe005
10
171.606734
20
77.452517
11
180.506940
21
73.571470
0
LINE
8
SubtractivePipe005
10
93.117600
20
182.305000
11
96.138080
21
183.866040
0
LINE
8
SubtractivePipe005
10
96.138038
20
183.866011
11
99.861263
21
176.936715
0
LINE
8
SubtractivePipe005
10
99.861263
20
176.936715
11
103.812658
21
170.138712
0
LINE
8
SubtractivePipe005
10
103.812658
20
170.138712
11
108.000167
21
163.488108
0
LINE
8
SubtractivePipe005
10
108.000167
20
163.488108
11
112.431738
21
157.001011
0
LINE
8
SubtractivePipe005
10
112.431738
20
157.001011
11
116.869163
21
151.007914
0
LINE
8
SubtractivePipe005
10
116.869163
20
151.007914
11
121.532644
21
145.191413
0
LINE
8
SubtractivePipe005
10
121.532644
20
145.191413
11
126.419896
21
139.563812
0
LINE
8
SubtractivePipe005
10
126.419896
20
139.563812
11
131.528638
21
134.137411
0
LINE
8
SubtractivePipe005
10
131.528638
20
134.137411
11
137.178916
21
128.614386
0
LINE
8
SubtractivePipe005
10
137.178916
20
128.614386
11
143.060458
21
123.337661
0
LINE
8
SubtractivePipe005
10
143.060458
20
123.337661
11
149.159289
21
118.311136
0
LINE
8
SubtractivePipe005
10
149.159289
20
118.311136
11
155.461438
21
113.538711
0
LINE
8
SubtractivePipe005
10
155.461438
20
113.538711
11
161.877064
21
109.067219
0
LINE
8
SubtractivePipe005
10
161.877064
20
109.067219
11
168.458791
21
104.839005
0
LINE
8
SubtractivePipe005
10
168.458791
20
104.839005
11
175.190592
21
100.846693
0
LINE
8
SubtractivePipe005
10
175.190592
20
100.846693
11
182.056438
21
97.082911
0
LINE
8
SubtractivePipe005
10
180.470000
20
94.075400
11
182.056000
21
97.082900
0
LINE
8
SubtractivePipe005
10
93.117600
20
182.305000
11
96.892971
21
175.278682
0
LINE
8
SubtractivePipe005
10
96.892971
20
175.278682
11
100.903280
21
168.379348
0
LINE
8
SubtractivePipe005
10
100.903280
20
168.379348
11
105.156799
21
161.623965
0
LINE
8
SubtractivePipe005
10
105.156799
20
161.623965
11
109.661800
21
155.029500
0
LINE
8
SubtractivePipe005
10
109.661800
20
155.029500
11
114.175669
21
148.933175
0
LINE
8
SubtractivePipe005
10
114.175669
20
148.933175
11
118.922020
21
143.013366
0
LINE
8
SubtractivePipe005
10
118.922020
20
143.013366
11
123.897961
21
137.283625
0
LINE
8
SubtractivePipe005
10
123.897961
20
137.283625
11
129.100600
21
131.757500
0
LINE
8
SubtractivePipe005
10
129.100600
20
131.757500
11
134.854944
21
126.132739
0
LINE
8
SubtractivePipe005
10
134.854944
20
126.132739
11
140.843884
21
120.759674
0
LINE
8
SubtractivePipe005
10
140.843884
20
120.759674
11
147.051956
21
115.643046
0
LINE
8
SubtractivePipe005
10
147.051956
20
115.643046
11
153.463700
21
110.787600
0
LINE
8
SubtractivePipe005
10
153.463700
20
110.787600
11
159.986662
21
106.241275
0
LINE
8
SubtractivePipe005
10
159.986662
20
106.241275
11
166.673405
21
101.945573
0
LINE
8
SubtractivePipe005
10
166.673405
20
101.945573
11
173.507021
21
97.892858
0
LINE
8
SubtractivePipe005
10
173.507021
20
97.892858
11
180.470600
21
94.075500
0
LINE
8
SubtractivePipe005
10
202.800000
20
201.000000
11
202.558846
21
201.900000
0
LINE
8
SubtractivePipe005
10
202.558846
20
201.900000
11
201.900000
21
202.558846
0
LINE
8
SubtractivePipe005
10
201.900000
20
202.558846
11
201.000000
21
202.800000
0
LINE
8
SubtractivePipe005
10
201.000000
20
202.800000
11
200.100000
21
202.558846
0
LINE
8
SubtractivePipe005
10
200.100000
20
202.558846
11
199.441154
21
201.900000
0
LINE
8
SubtractivePipe005
10
199.441154
20
201.900000
11
199.200000
21
201.000000
0
LINE
8
SubtractivePipe005
10
199.200000
20
201.000000
11
199.341453
21
200.299359
0
LINE
8
SubtractivePipe005
10
199.341453
20
200.299359
11
199.727208
21
199.727208
0
LINE
8
SubtractivePipe005
10
199.727208
20
199.727208
11
200.299359
21
199.341453
0
LINE
8
SubtractivePipe005
10
200.299359
20
199.341453
11
201.000000
21
199.200000
0
LINE
8
SubtractivePipe005
10
201.000000
20
199.200000
11
201.700641
21
199.341453
0
LINE
8
SubtractivePipe005
10
201.700641
20
199.341453
11
202.272792
21
199.727208
0
LINE
8
SubtractivePipe005
10
202.272792
20
199.727208
11
202.658547
21
200.299359
0
LINE
8
SubtractivePipe005
10
202.658547
20
200.299359
11
202.800000
21
201.000000
0
LINE
8
SubtractivePipe005
10
202.800000
20
201.000000
11
202.800000
21
201.000000
0
LINE
8
SubtractivePipe005
10
206.000000
20
206.000000
11
206.000000
21
206.000000
0
LINE
8
SubtractivePipe005
10
0.000000
20
206.000000
11
0.000000
21
206.000000
0
LINE
8
SubtractivePipe005
10
26.217200
20
114.895000
11
22.892700
21
114.183000
0
LINE
8
SubtractivePipe005
10
163.636000
20
29.223500
11
163.070000
21
25.871200
0
LINE
8
SubtractivePipe005
10
41.740900
20
180.004000
11
38.422500
21
179.263000
0
LINE
8
SubtractivePipe005
10
206.000000
20
0.000291
11
206.000000
21
0.000291
0
LINE
8
SubtractivePipe005
10
206.000000
20
206.000000
11
206.000000
21
206.000000
0
LINE
8
SubtractivePipe005
10
6.799990
20
5.000910
11
6.799990
21
5.000910
0
LINE
8
SubtractivePipe005
10
6.799990
20
5.000910
11
6.799990
21
5.000910
0
LINE
8
SubtractivePipe005
10
22.892700
20
114.183000
11
22.892700
21
114.183000
0
LINE
8
SubtractivePipe005
10
113.036000
20
23.140700
11
113.036000
21
23.140700
0
LINE
8
SubtractivePipe005
10
22.892700
20
114.183000
11
22.892700
21
114.183000
0
LINE
8
SubtractivePipe005
10
26.217200
20
114.895000
11
26.217200
21
114.895000
0
LINE
8
SubtractivePipe005
10
113.036000
20
23.140700
11
113.036000
21
23.140700
0
LINE
8
SubtractivePipe005
10
113.762000
20
26.463900
11
113.762000
21
26.463900
0
LINE
8
SubtractivePipe005
10
26.217200
20
114.895000
11
26.217200
21
114.895000
0
LINE
8
SubtractivePipe005
10
113.762000
20
26.463900
11
113.762000
21
26.463900
0
LINE
8
SubtractivePipe005
10
163.070000
20
25.871200
11
163.070000
21
25.871200
0
LINE
8
SubtractivePipe005
10
163.070000
20
25.871200
11
163.070000
21
25.871200
0
LINE
8
SubtractivePipe005
10
163.636000
20
29.223500
11
163.636000
21
29.223500
0
LINE
8
SubtractivePipe005
10
163.636000
20
29.223500
11
163.636000
21
29.223500
0
LINE
8
SubtractivePipe005
10
202.800000
20
5.000910
11
202.800000
21
5.000910
0
LINE
8
SubtractivePipe005
10
202.800000
20
5.000910
11
202.800000
21
5.000910
0
LINE
8
SubtractivePipe005
10
6.799990
20
201.000000
11
6.799990
21
201.000000
0
LINE
8
SubtractivePipe005
10
6.799990
20
201.000000
11
6.799990
21
201.000000
0
LINE
8
SubtractivePipe005
10
38.422500
20
179.263000
11
38.422500
21
179.263000
0
LINE
8
SubtractivePipe005
10
177.469000
20
38.827300
11
177.469000
21
38.827300
0
LINE
8
SubtractivePipe005
10
38.422500
20
179.263000
11
38.422500
21
179.263000
0
LINE
8
SubtractivePipe005
10
41.740900
20
180.004000
11
41.740900
21
180.004000
0
LINE
8
SubtractivePipe005
10
177.469000
20
38.827300
11
177.469000
21
38.827300
0
LINE
8
SubtractivePipe005
10
178.223000
20
42.142300
11
178.223000
21
42.142300
0
LINE
8
SubtractivePipe005
10
41.740900
20
180.004000
11
41.740900
21
180.004000
0
LINE
8
SubtractivePipe005
10
178.223000
20
42.142300
11
178.223000
21
42.142300
0
LINE
8
SubtractivePipe005
10
52.978200
20
180.808000
11
52.978200
21
180.808000
0
LINE
8
SubtractivePipe005
10
52.978200
20
180.808000
11
52.978200
21
180.808000
0
LINE
8
SubtractivePipe005
10
56.233700
20
181.789000
11
56.233700
21
181.789000
0
LINE
8
SubtractivePipe005
10
56.233700
20
181.789000
11
56.233700
21
181.789000
0
LINE
8
SubtractivePipe005
10
72.818800
20
182.339000
11
72.818800
21
182.339000
0
LINE
8
SubtractivePipe005
10
72.818800
20
182.339000
11
72.818800
21
182.339000
0
LINE
8
SubtractivePipe005
10
75.968400
20
183.620000
11
75.968400
21
183.620000
0
LINE
8
SubtractivePipe005
10
75.968400
20
183.620000
11
75.968400
21
183.620000
0
LINE
8
SubtractivePipe005
10
93.117600
20
182.305000
11
93.117600
21
182.305000
0
LINE
8
SubtractivePipe005
10
180.470000
20
94.075400
11
180.470000
21
94.075400
0
LINE
8
SubtractivePipe005
10
180.470000
20
94.075400
11
180.470000
21
94.075400
0
LINE
8
SubtractivePipe005
10
182.056000
20
97.082900
11
182.056000
21
97.082900
0
LINE
8
SubtractivePipe005
10
96.138100
20
183.866000
11
96.138100
21
183.866000
0
LINE
8
SubtractivePipe005
10
182.056000
20
97.082900
11
182.056000
21
97.082900
0
LINE
8
SubtractivePipe005
10
93.117600
20
182.305000
11
93.117600
21
182.305000
0
LINE
8
SubtractivePipe005
10
202.800000
20
201.000000
11
202.800000
21
201.000000
0
LINE
8
SubtractivePipe005
10
202.800000
20
201.000000
11
202.800000
21
201.000000
0
LINE
8
SubtractivePipe005
10
177.468000
20
38.827200
11
178.222662
21
42.142390
0
LINE
8
SubtractivePipe005
10
180.507000
20
73.571400
11
181.809650
21
76.711950
 0 
ENDSEC
 0 
EOF